<ttFont>
          <CharString index="0">
            434 -15 rmoveto
            61 45 -31 callsubr
            278 vlineto
            -56 callsubr
            -87 callsubr
            -86 callsubr
            return
          </CharString>
          <CharString index="1">
            -57 callsubr
            200 -104 165 -231 -67 callsubr
            hvcurveto
            59 vmoveto
            -142 -65 137 169 169 65 137 142 142 65 -137 -169 -169 -65 -137 -142 hvcurveto
            return
          </CharString>
          <CharString index="2">
            297 40 rmoveto
            -84 -45 87 124 124 45 85 84 84 45 -85 -124 -124 -45 -87 -84 hvcurveto
            -55 vmoveto
            -37 callsubr
            156 -108 108 -146 -38 callsubr
            -156 109 -110 146 hvcurveto
            return
          </CharString>
          <CharString index="3">
            -37 29 -96 callsubr
            -29 -28 -37 vhcurveto
            return
          </CharString>
          <CharString index="4">
            499 -7 callsubr
            -60 126 -160 -154 -83 -119 -140 -142 91 -129 169 50 61 12 29 66 vhcurveto
            -17 -36 callsubr
            -118 -60 97 100 -8 hvcurveto
            115 213 rmoveto
            67 28 -79 -69 4 hvcurveto
            -214 -16 rlineto
            90 3 44 74 68 hhcurveto
            return
          </CharString>
          <CharString index="5">
            128 vstem
            -106 callsubr
            return
          </CharString>
          <CharString index="6">
            -10 hmoveto
            252 46 hlineto
            -81 callsubr
            -228 638 rlineto
            -72 hlineto
            -243 -637 -94 -22 rlineto
            341 484 -35 callsubr
            return
          </CharString>
          <CharString index="7">
            71 vstem
            768 700 rmoveto
            -256 -46 hlineto
            93 8 callsubr
            -137 -80 -63 -105 -104 -79 60 140 vhcurveto
            370 -70 callsubr
            92 8 callsubr
            -186 126 -91 157 155 124 91 186 -13 callsubr
            return
          </CharString>
          <CharString index="8">
            13 457 rmoveto
            85 -20 rlineto
            -295 vlineto
            -90 53 -67 110 76 57 35 31 37 vhcurveto
            -9 2 18 -57 65 hhcurveto
            61 51 -31 callsubr
            435 -184 -43 vlineto
            65 -20 rlineto
            -331 vlineto
            -27 -32 -47 -24 -49 hhcurveto
            -58 -28 36 64 hvcurveto
            345 -204 vlineto
            return
          </CharString>
          <CharString index="9">
            173 -15 77 638 -20 hstem
            114 123 368 -100 callsubr
            return
          </CharString>
          <CharString index="10">
            -26 callsubr
            414 -102 callsubr
            return
          </CharString>
          <CharString index="11">
            -29 37 37 28 29 37 37 -28 28 -37 -37 return
          </CharString>
          <CharString index="12">
            rmoveto
            -104 callsubr
            200 -92 callsubr
          </CharString>
          <CharString index="13">
            hstem
            42 11 callsubr
            -103 callsubr
            return
          </CharString>
          <CharString index="14">
            -20 hstem
            98 119 214 11 callsubr
            -99 callsubr
            return
          </CharString>
          <CharString index="15">
            hmoveto
            -104 callsubr
            endchar
          </CharString>
          <CharString index="16">
            24 0 59 582 59 -11 callsubr
            259 641 rmoveto
            216 -8 43 -138 rlineto
            47 205 -521 -46 hlineto
            -50 callsubr
            -46 540 vlineto
            8 216 rlineto
            -47 hlineto
            -51 -149 -235 -8 rlineto
            273 vlineto
            216 -18 rlineto
            89 vlineto
            -216 -19 rlineto
            return
          </CharString>
          <CharString index="17">
            hstem
            -22 callsubr
            vstem
            -105 callsubr
            return
          </CharString>
          <CharString index="18">
            hstem
            35 126 181 120 vstem
            -107 callsubr
            return
          </CharString>
          <CharString index="19">
            rmoveto
            -37 28 -96 callsubr
            -28 -28 -37 vhcurveto
            214 -92 callsubr
          </CharString>
          <CharString index="20">
            1 -42 26 -40 31 -19 117 100 rcurveline
            92 9 -51 -83 hvcurveto
            -35 vlineto
            -215 -92 -61 -112 -98 82 -41 79 73 48 28 23 30 hvcurveto
            return
          </CharString>
          <CharString index="21">
            -22 12 23 -29 52 hhcurveto
            -273 143 rmoveto
            68 57 50 124 vhcurveto
            -157 vlineto
            -20 -23 -37 -14 -34 hhcurveto
            -46 -41 20 53 hvcurveto
            return
          </CharString>
          <CharString index="22">
            100 21 -21 hstem
            -101 callsubr
            return
          </CharString>
          <CharString index="23">
            -27 callsubr
            -94 callsubr
            return
          </CharString>
          <CharString index="24">
            30 -15 70 445 -93 callsubr
            return
          </CharString>
          <CharString index="25">
            -12 callsubr
            -90 callsubr
            return
          </CharString>
          <CharString index="26">
            -88 20 52 132 rlineto
            245 hlineto
            48 -135 -74 -17 rlineto
            -46 294 46 vlineto
            -92 21 return
          </CharString>
          <CharString index="27">
            351 -65 callsubr
            93 -34 callsubr
            -93 -22 rlineto
            -46 307 vlineto
            return
          </CharString>
          <CharString index="28">
            1 457 rmoveto
            68 -19 210 -465 -143 -227 rlineto
            -25 15 34 -20 40 hhcurveto
            13 hlineto
            283 735 79 21 rlineto
            43 -221 -43 vlineto
            80 -20 -120 -312 -142 317 77 15 rlineto
            43 -273 vlineto
            return
          </CharString>
          <CharString index="29">
            326 43 rmoveto
            20 callsubr
            437 -45 vlineto
            -73 callsubr
            -43 290 vlineto
            return
          </CharString>
          <CharString index="30">
            rmoveto
            -84 hlineto
            -115 -185 45 -24 112 127 113 -127 46 24 rlineto
            endchar
          </CharString>
          <CharString index="31">
            hstem
            121 120 vstem
            -78 callsubr
            return
          </CharString>
          <CharString index="32">
            43 rmoveto
            -65 20 rlineto
            333 vlineto
            23 32 45 23 46 hhcurveto
            60 27 -38 -64 hvcurveto
            -277 vlineto
            -48 callsubr
            -107 -70 -55 -33 -30 -36 vhcurveto
            return
          </CharString>
          <CharString index="33">
            rmoveto
            -84 hlineto
            -135 -146 46 -24 131 93 122 -92 50 23 rlineto
            endchar
          </CharString>
          <CharString index="34">
            -64 callsubr
            -356 -25 callsubr
            return
          </CharString>
          <CharString index="35">
            rmoveto
            43 -29 154 158 -25 31 -35 16 -33 6 rlinecurve
            endchar
          </CharString>
          <CharString index="36">
            31 callsubr
            -307 -46 vlineto
            return
          </CharString>
          <CharString index="37">
            vlineto
            -71 callsubr
            return
          </CharString>
          <CharString index="38">
            -173 rmoveto
            51 38 84 104 73 vvcurveto
            55 -29 -39 callsubr
            -29 -55 -48 -51 rlinecurve
            return
          </CharString>
          <CharString index="39">
            rmoveto
            27 -32 214 91 -17 32 -31 35 -35 11 rlinecurve
            endchar
          </CharString>
          <CharString index="40">
            -232 -103 -165 -200 -201 103 -164 232 return
          </CharString>
          <CharString index="41">
            rmoveto
            -34 -6 -35 -16 -25 -31 153 -154 rcurveline
            42 29 rlineto
            endchar
          </CharString>
          <CharString index="42">
            46 rmoveto
            -92 22 rlineto
            564 -70 callsubr
            return
          </CharString>
          <CharString index="43">
            -160 -38 rlineto
            -43 85 return
          </CharString>
          <CharString index="44">
            rmoveto
            -35 -11 -32 -35 -16 -32 214 -91 rcurveline
            27 32 rlineto
            endchar
          </CharString>
          <CharString index="45">
            rlineto
            43 -3 30 -16 -39 vvcurveto
            -34 -23 -20 -39 -19 -19 3 5 -24 vhcurveto
            -56 vlineto
            -5 24 31 -6 22 hhcurveto
            90 52 43 71 hvcurveto
            endchar
          </CharString>
          <CharString index="46">
            -16 -278 -21 799 -20 hstem
            -79 callsubr
            return
          </CharString>
          <CharString index="47">
            59 25 -57 52 hhcurveto
            80 43 93 0 hvcurveto
            -30 29 rlineto
            -28 -35 -20 -14 -24 hhcurveto
            endchar
          </CharString>
          <CharString index="48">
            53 8 -54 71 hhcurveto
            80 53 90 0 hvcurveto
            -31 27 rlineto
            -29 -34 -30 -11 -25 hhcurveto
            endchar
          </CharString>
          <CharString index="49">
            788 700 rmoveto
            -257 45 callsubr
            -427 vlineto
            -417 495 rlineto
            -162 -46 hlineto
            -50 callsubr
            -46 254 -19 callsubr
            439 vlineto
            430 -507 rlineto
            60 632 hlineto
            6 callsubr
            return
          </CharString>
          <CharString index="50">
            386 -15 rmoveto
            231 104 164 201 return
          </CharString>
          <CharString index="51">
            103 -56 69 -149 -110 -81 -48 0 vhcurveto
            return
          </CharString>
          <CharString index="52">
            315 rmoveto
            -52 12 rlineto
            383 -41 vlineto
            -132 -70 9 -29 76 33 rlineto
            -317 vlineto
            -72 -12 rlineto
            -30 212 vlineto
            return
          </CharString>
          <CharString index="53">
            rmoveto
            -30 -61 rlineto
            -139 hlineto
            79 64 96 95 98 vvcurveto
            74 -59 25 -62 -47 -53 -12 -19 -38 vhcurveto
            2 -31 22 -36 26 -13 62 77 rcurveline
            33 24 -19 -44 -125 -141 -135 -36 -32 hvcurveto
            -36 273 vlineto
            18 130 rlineto
            return
          </CharString>
          <CharString index="54">
            -46 -30 57 -61 hhcurveto
            -75 -49 -91 0 hvcurveto
            31 -31 rlineto
            28 38 17 14 25 hhcurveto
            return
          </CharString>
          <CharString index="55">
            -52 -10 54 -69 hhcurveto
            -75 -59 -90 0 hvcurveto
            31 -28 rlineto
            28 38 26 13 25 hhcurveto
            return
          </CharString>
          <CharString index="56">
            70 56 21 24 45 hvcurveto
            -17 49 rlineto
            -11 -20 -42 -17 -50 hhcurveto
            -96 -77 53 146 125 57 74 64 11 hvcurveto
            6 hlineto
            96 -91 29 15 33 40 1 49 rlinecurve
            23 -39 -53 19 -68 hhcurveto
            -133 -115 -104 -163 return
          </CharString>
          <CharString index="57">
            92 -34 callsubr
            -92 -22 rlineto
            return
          </CharString>
          <CharString index="58">
            -58 -158 rlineto
            -5 -27 -57 -3 -26 hhcurveto
            -151 -78 100 198 198 81 100 168 27 37 -3 -6 26 hvcurveto
            46 -148 rlineto
            46 189 hlineto
            20 -44 -83 15 -68 hhcurveto
            -242 -120 -135 -230 return
          </CharString>
          <CharString index="59">
            -65 1 callsubr
            20 callsubr
            295 vlineto
            90 -61 67 return
          </CharString>
          <CharString index="60">
            rmoveto
            hintmask 11011100
            -52 callsubr
            hintmask 11101100
            -59 callsubr
          </CharString>
          <CharString index="61">
            rmoveto
            hintmask 01000000
            -52 callsubr
            hintmask 10000000
            -59 callsubr
          </CharString>
          <CharString index="62">
            654 rmoveto
            74 -20 -148 -236 -165 243 65 13 rlineto
            46 -288 -46 vlineto
            81 -20 return
          </CharString>
          <CharString index="63">
            -379 0 callsubr
            vstem
            56 -69 callsubr
            endchar
          </CharString>
          <CharString index="64">
            -40 callsubr
            -32 callsubr
          </CharString>
          <CharString index="65">
            rmoveto
            -70 hlineto
            -357 -715 rlineto
            71 hlineto
            endchar
          </CharString>
          <CharString index="66">
            vstem
            48 357 rmoveto
            -203 164 -164 204 202 165 164 203 203 -165 165 -202 -204 -164 -165 -203 vhcurveto
            return
          </CharString>
          <CharString index="67">
            rmoveto
            -60 49 -49 60 60 49 49 60 -17 callsubr
            54 hmoveto
            return
          </CharString>
          <CharString index="68">
            -15 callsubr
            -46 vhcurveto
            66 -51 -13 -32 return
          </CharString>
          <CharString index="69">
            -146 -109 -108 -156 return
          </CharString>
          <CharString index="70">
            146 108 110 156 return
          </CharString>
          <CharString index="71">
            47 rlineto
            -16 -43 -38 -7 -34 hhcurveto
            return
          </CharString>
          <CharString index="72">
            rmoveto
            98 -273 rlineto
            -201 hlineto
            return
          </CharString>
          <CharString index="73">
            -22 rlineto
            -564 vlineto
            return
          </CharString>
          <CharString index="74">
            315 -20 436 -21 hstem
            267 -55 callsubr
            return
          </CharString>
          <CharString index="75">
            29 25 26 30 30 25 -26 -29 -30 -25 -25 -30 -30 -25 25 30 vhcurveto
            endchar
          </CharString>
          <CharString index="76">
            47 0 hvcurveto
            33 -78 return
          </CharString>
          <CharString index="77">
            21 -21 700 -20 hstem
            return
          </CharString>
          <CharString index="78">
            86 43 -33 -52 -50 -43 -32 -60 -29 -35 5 13 -34 hvcurveto
            -14 -36 rlineto
            -16 39 46 -9 44 hhcurveto
            97 79 40 85 55 -37 44 -83 12 hvcurveto
            return
          </CharString>
          <CharString index="79">
            rmoveto
            53 -43 44 -100 -72 -49 -29 0 vhcurveto
            1 -28 25 -34 20 -13 59 73 rcurveline
            44 -5 26 -28 -34 vvcurveto
            -43 -37 -46 -70 vhcurveto
            -37 vlineto
            return
          </CharString>
          <CharString index="80">
            -81 -15 65 197 65 148 55 return
          </CharString>
          <CharString index="81">
            -6 callsubr
            10 callsubr
            return
          </CharString>
          <CharString index="82">
            vlineto
            -85 -20 rlineto
            return
          </CharString>
          <CharString index="83">
            vstem
            75 423 rmoveto
            51 38 84 104 74 vvcurveto
            54 -29 -15 callsubr
            -45 vhcurveto
            66 -52 -13 -32 -29 -55 -48 -50 rlinecurve
            return
          </CharString>
          <CharString index="84">
            hstem
            -18 callsubr
            return
          </CharString>
          <CharString index="85">
            42 126 258 125 return
          </CharString>
          <CharString index="86">
            vlineto
            -64 callsubr
            return
          </CharString>
          <CharString index="87">
            -1 callsubr
            292 -48 vlineto
            -14 callsubr
            return
          </CharString>
          <CharString index="88">
            46 vlineto
            -92 22 rlineto
            return
          </CharString>
          <CharString index="89">
            136 123 return
          </CharString>
          <CharString index="90">
            60 -49 49 -60 -60 -49 -49 -60 vhcurveto
            return
          </CharString>
          <CharString index="91">
            37 -30 30 -37 -37 -31 -30 -37 vhcurveto
            return
          </CharString>
          <CharString index="92">
            28 -46 -36 -37 -30 return
          </CharString>
          <CharString index="93">
            -33 -292 rmoveto
            -133 hlineto
            133 170 rlineto
            return
          </CharString>
          <CharString index="94">
            18 callsubr
            6 callsubr
            return
          </CharString>
          <CharString index="95">
            -24 -15 55 420 55 return
          </CharString>
          <CharString index="96">
            -23 callsubr
            vstem
            return
          </CharString>
          <CharString index="97">
            -92 -22 rlineto
            return
          </CharString>
          <CharString index="98">
            rmoveto
            -41 33 -33 41 42 32 33 41 42 -32 32 -42 -41 -33 -32 -42 vhcurveto
            endchar
          </CharString>
          <CharString index="99">
            -45 -21 callsubr
            return
          </CharString>
          <CharString index="100">
            247 rmoveto
            142 return
          </CharString>
          <CharString index="101">
            -15 59 612 59 return
          </CharString>
          <CharString index="102">
            hlineto
            -2 callsubr
            return
          </CharString>
          <CharString index="103">
            hhcurveto
            -6 -5 -2 -3 -4 hvcurveto
            -4 -4 -3 -3 -3 -6 -10 16 rcurveline
            -34 -31 hlineto
            return
          </CharString>
          <CharString index="104">
            53 rmoveto
            -36 31 -32 37 37 30 32 36 -16 callsubr
            return
          </CharString>
          <CharString index="105">
            -71 callsubr
            -50 callsubr
            -46 return
          </CharString>
          <CharString index="106">
            rmoveto
            -34 205 -85 80 85 49 47 -49 return
          </CharString>
          <CharString index="107">
            -152 19 callsubr
            hstem
            43 148 return
          </CharString>
          <CharString index="108">
            -20 rlineto
            -43 269 43 vlineto
            return
          </CharString>
          <CharString index="109">
            130 84 131 return
          </CharString>
          <CharString index="110">
            hhcurveto
            51 58 12 29 66 hvcurveto
            -15 -36 callsubr
            return
          </CharString>
          <CharString index="111">
            -65 -15 80 181 51 169 49 return
          </CharString>
          <CharString index="112">
            -196 67 196 197 68 -197 195 vlineto
            endchar
          </CharString>
          <CharString index="113">
            92 22 rlineto
            return
          </CharString>
          <CharString index="114">
            rmoveto
            -50 -39 -85 -103 -74 vvcurveto
            -54 29 -28 46 37 36 30 return
          </CharString>
          <CharString index="115">
            -22 rlineto
            -370 vlineto
            return
          </CharString>
          <CharString index="116">
            131 69 131 return
          </CharString>
          <CharString index="117">
            hstem
            51 128 return
          </CharString>
          <CharString index="118">
            119 vstem
            return
          </CharString>
          <CharString index="119">
            -20 hstem
            106 120 vstem
            106 63 rmoveto
            -85 -20 rlineto
            -43 return
          </CharString>
          <CharString index="120">
            40 hlineto
            136 138 -65 -218 hvcurveto
            endchar
          </CharString>
          <CharString index="121">
            37 22 callsubr
          </CharString>
          <CharString index="122">
            rmoveto
            53 -38 36 -67 3 vhcurveto
            return
          </CharString>
          <CharString index="123">
            47 callsubr
            -46 307 return
          </CharString>
          <CharString index="124">
            54 110 54 return
          </CharString>
          <CharString index="125">
            vhcurveto
            370 vlineto
            return
          </CharString>
          <CharString index="126">
            -21 298 -20 return
          </CharString>
          <CharString index="127">
            -85 20 rlineto
            return
          </CharString>
          <CharString index="128">
            63 -23 callsubr
            220 49 callsubr
            return
          </CharString>
          <CharString index="129">
            -16 callsubr
            endchar
          </CharString>
          <CharString index="130">
            37 -30 30 -37 -36 -32 -30 -37 vhcurveto
            endchar
          </CharString>
          <CharString index="131">
            -21 209 -20 hstem
            return
          </CharString>
          <CharString index="132">
            92 -22 rlineto
            return
          </CharString>
          <CharString index="133">
            -30 62 30 -17 39 34 31 vlineto
            1 -3 return
          </CharString>
          <CharString index="134">
            -36 31 -32 36 38 29 32 36 37 -29 return
          </CharString>
          <CharString index="135">
            444 19 callsubr
            hstem
            62 148 return
          </CharString>
          <CharString index="136">
            -128 48 373 47 372 48 hstem
            return
          </CharString>
          <CharString index="137">
            32 29 55 49 50 rlinecurve
            return
          </CharString>
          <CharString index="138">
            6 callsubr
            46 return
          </CharString>
          <CharString index="139">
            -284 -128 55 778 55 hstem
            return
          </CharString>
          <CharString index="140">
            -365 756 -21 169 -20 hstem
            return
          </CharString>
          <CharString index="141">
            rmoveto
            46 hlineto
            30 235 rlineto
            -106 hlineto
            return
          </CharString>
          <CharString index="142">
            -15 67 596 67 hstem
            51 126 return
          </CharString>
          <CharString index="143">
            -285 -278 -21 1098 -20 hstem
            return
          </CharString>
          <CharString index="144">
            123 vstem
            return
          </CharString>
          <CharString index="145">
            602 77 -23 77 hstemhm
            hintmask 10000000
            return
          </CharString>
          <CharString index="146">
            148 -136 119 hintmask 11101000
            return
          </CharString>
          <CharString index="147">
            -313 91 -21 400 -20 hstem
            return
          </CharString>
          <CharString index="148">
            -77 121 -21 516 -20 hstem
            return
          </CharString>
          <CharString index="149">
            -140 101 -21 380 -20 hstem
            return
          </CharString>
          <CharString index="150">
            -20 339 -21 hstem
            41 148 return
          </CharString>
          <CharString index="151">
            21 -21 442 73 return
          </CharString>
          <CharString index="152">
            -46 hlineto
            25 callsubr
            return
          </CharString>
          <CharString index="153">
            216 rlineto
            -46 hlineto
            return
          </CharString>
          <CharString index="154">
            vlineto
            -10 callsubr
            return
          </CharString>
          <CharString index="155">
            80 -23 80 hstemhm
            return
          </CharString>
          <CharString index="156">
            126 vstem
            return
          </CharString>
        <CharString name=".notdef">
          -365 endchar
        </CharString>
        <CharString name=".null">
          -617 endchar
        </CharString>
        <CharString name="A">
          -85 callsubr
          endchar
        </CharString>
        <CharString name="AE">
          423 0 67 170 64 332 67 hstem
          533 37 callsubr
          441 hmoveto
          526 hlineto
          30 46 callsubr
          -73 -149 rlineto
          -222 266 hlineto
          221 -19 rlineto
          89 vlineto
          -221 -20 rlineto
          250 222 vlineto
          43 -138 rlineto
          46 205 -434 hlineto
          -452 -632 -10 callsubr
          -46 265 46 vlineto
          -89 21 121 170 rlineto
          247 -169 hlineto
          -10 callsubr
          -110 255 rmoveto
          202 283 rlineto
          -283 vlineto
          endchar
        </CharString>
        <CharString name="Aacute">
          -85 callsubr
          34 510 -68 callsubr
        </CharString>
        <CharString name="Acircumflex">
          -85 callsubr
          174 646 -74 callsubr
        </CharString>
        <CharString name="Adieresis">
          100 21 -21 756 131 hstem
          188 2 callsubr
          vstem
          -101 callsubr
          -40 565 -88 callsubr
        </CharString>
        <CharString name="Agrave">
          -85 callsubr
          48 647 -63 callsubr
        </CharString>
        <CharString name="Aring">
          101 21 -21 655 17 callsubr
          hstem
          255 17 callsubr
          vstem
          255 764 rmoveto
          -42 23 -37 35 -18 vhcurveto
          -228 -599 -94 -22 rlineto
          -46 252 46 vlineto
          -81 callsubr
          -215 600 rlineto
          35 18 25 37 42 vvcurveto
          -17 callsubr
          77 -234 -35 callsubr
          80 507 rmoveto
          -32 callsubr
        </CharString>
        <CharString name="Atilde">
          100 21 -21 767 48 callsubr
          hintmask 11000000
          -101 callsubr
          211 590 rmoveto
          hintmask 10100000
          -53 callsubr
          hintmask 11000000
          -60 callsubr
        </CharString>
        <CharString name="B">
          62 0 61 271 63 244 61 hstemhm
          -18 callsubr
          190 126 -76 126 hintmask 11110100
          44 hmoveto
          333 hlineto
          152 96 77 120 92 -62 64 -109 20 hvcurveto
          2 vlineto
          hintmask 11111000
          73 24 48 57 74 vvcurveto
          126 -100 44 -144 vhcurveto
          -287 -46 hlineto
          -50 callsubr
          hintmask 11110100
          455 151 rmoveto
          -88 -56 -48 -97 vhcurveto
          -87 271 82 hlineto
          103 55 -56 -79 hvcurveto
          hintmask 11111000
          -50 324 rmoveto
          -81 -58 -45 -75 vhcurveto
          -57 244 51 hlineto
          80 59 -34 -84 hvcurveto
          endchar
        </CharString>
        <CharString name="C">
          54 35 callsubr
          vstem
          574 218 rmoveto
          -49 callsubr
          -231 119 -134 224 77 101 21 23 41 hvcurveto
          7 189 rlineto
          endchar
        </CharString>
        <CharString name="Ccedilla">
          54 -260 59 186 67 -63 -20 679 67 hstemhm
          51 126 232 95 hintmask 10111100
          504 -146 15 callsubr
          hintmask 11011100
          10 39 74 3 91 19 39 22 rlinecurve
          7 189 rlineto
          -46 hlineto
          -49 callsubr
          -218 105 -131 200 -14 hvcurveto
          -20 -76 -62 callsubr
        </CharString>
        <CharString name="D">
          132 0 67 566 67 -23 callsubr
          314 49 callsubr
          44 hmoveto
          260 hlineto
          236 159 140 210 240 -159 110 -236 hvcurveto
          -260 -46 hlineto
          -50 callsubr
          529 304 rmoveto
          -218 -117 -65 -157 vhcurveto
          -40 566 13 callsubr
        </CharString>
        <CharString name="E">
          -91 callsubr
          endchar
        </CharString>
        <CharString name="Eacute">
          -91 callsubr
          3 383 -68 callsubr
        </CharString>
        <CharString name="Ecircumflex">
          -91 callsubr
          123 529 -74 callsubr
        </CharString>
        <CharString name="Edieresis">
          24 0 59 582 59 61 131 hstemhm
          -18 callsubr
          -81 2 callsubr
          hintmask 11110100
          259 641 rmoveto
          216 -8 43 -138 rlineto
          47 205 -521 -46 hlineto
          -50 callsubr
          -46 540 vlineto
          8 216 rlineto
          -47 hlineto
          -51 -149 -235 -8 rlineto
          273 vlineto
          216 -18 rlineto
          89 vlineto
          -216 -19 rlineto
          hintmask 11101100
          -81 443 -88 callsubr
        </CharString>
        <CharString name="Egrave">
          -91 callsubr
          -12 520 -63 callsubr
        </CharString>
        <CharString name="Eth">
          134 0 67 262 46 258 67 hstem
          137 123 314 49 callsubr
          45 329 rmoveto
          92 -261 hlineto
          -10 callsubr
          -46 260 vlineto
          236 159 109 241 240 -159 110 -236 hvcurveto
          -260 45 callsubr
          -257 -92 vlineto
          529 -25 rmoveto
          -218 -138 -65 -136 vhcurveto
          -40 262 153 46 -153 258 13 callsubr
        </CharString>
        <CharString name="Euro">
          70 -15 67 188 72 70 73 193 67 hstem
          103 49 callsubr
          47 382 rmoveto
          57 hlineto
          -1 -10 0 -12 -10 vvcurveto
          -20 1 -20 2 -19 vhcurveto
          -59 -3 rlineto
          -48 66 vlineto
          -160 31 104 -95 176 hhcurveto
          75 67 26 23 40 hvcurveto
          26 184 rlineto
          -46 hlineto
          -77 -158 rlineto
          -6 -26 -28 -2 -26 hhcurveto
          -107 -62 66 122 -22 hvcurveto
          192 hlineto
          25 72 -224 -14 rlineto
          -2 16 0 18 18 vvcurveto
          11 0 11 1 10 vhcurveto
          248 hlineto
          25 73 -268 -16 rlineto
          135 20 71 74 120 hhcurveto
          29 28 -3 -5 26 hvcurveto
          46 -149 rlineto
          45 185 hlineto
          20 -43 -76 19 -65 hhcurveto
          -202 -102 -107 -175 -24 hvcurveto
          -61 -4 rlineto
          endchar
        </CharString>
        <CharString name="F">
          -27 21 -21 641 59 -11 callsubr
          259 641 rmoveto
          213 -8 42 -138 rlineto
          46 205 -516 -46 hlineto
          -50 callsubr
          -46 327 46 vlineto
          -112 22 rlineto
          263 vlineto
          216 -17 rlineto
          89 vlineto
          -216 -18 rlineto
          endchar
        </CharString>
        <CharString name="G">
          109 35 callsubr
          328 37 callsubr
          702 324 rmoveto
          -311 -35 hlineto
          114 -21 rlineto
          -209 vlineto
          -5 -25 -27 -2 -27 hhcurveto
          -160 -89 100 198 198 101 100 168 29 30 -4 -4 25 hvcurveto
          47 -149 rlineto
          46 190 hlineto
          20 -46 -75 14 -73 hhcurveto
          -246 -132 -135 -230 -231 126 -134 236 84 84 24 25 47 hvcurveto
          234 vlineto
          74 21 rlineto
          endchar
        </CharString>
        <CharString name="H">
          210 700 -20 hstem
          783 -65 callsubr
          25 callsubr
          -245 -309 245 vlineto
          -2 callsubr
          307 -19 callsubr
          252 309 -252 16 callsubr
          vlineto
          endchar
        </CharString>
        <CharString name="I">
          -222 -30 callsubr
          -80 callsubr
          endchar
        </CharString>
        <CharString name="Iacute">
          -222 -30 callsubr
          -80 callsubr
          -220 767 -68 callsubr
        </CharString>
        <CharString name="Icircumflex">
          -222 -30 callsubr
          -80 callsubr
          -109 913 -74 callsubr
        </CharString>
        <CharString name="Idieresis">
          -222 21 -21 700 -20 81 131 hstem
          33 2 callsubr
          vstem
          -80 callsubr
          -318 827 -88 callsubr
        </CharString>
        <CharString name="Igrave">
          -222 -30 callsubr
          -80 callsubr
          -269 904 -63 callsubr
        </CharString>
        <CharString name="J">
          -242 -133 -21 854 -20 hstem
          128 37 callsubr
          343 700 rmoveto
          -307 45 callsubr
          -482 vlineto
          -140 -58 -77 -62 -45 vhcurveto
          35 -42 rlineto
          87 38 121 112 154 vvcurveto
          482 vlineto
          6 callsubr
          endchar
        </CharString>
        <CharString name="K">
          106 21 -21 700 -20 -11 callsubr
          44 hmoveto
          307 46 hlineto
          -92 17 rlineto
          574 vlineto
          92 17 rlineto
          46 -307 -46 vlineto
          92 -17 rlineto
          -574 vlineto
          -92 -17 rlineto
          237 313 rmoveto
          248 -359 rlineto
          193 46 hlineto
          -95 32 -235 315 215 239 89 22 rlineto
          46 -240 -46 vlineto
          72 -17 rlineto
          endchar
        </CharString>
        <CharString name="L">
          1 0 67 633 -20 -11 callsubr
          548 216 rmoveto
          -54 -149 rlineto
          -235 565 -5 callsubr
          540 vlineto
          10 216 rlineto
          endchar
        </CharString>
        <CharString name="M">
          393 16 -21 26 -21 700 -20 hstemhm
          141 64 547 117 hintmask 01111000
          69 654 rmoveto
          88 -21 -32 -564 -95 -23 rlineto
          -46 252 46 vlineto
          -89 21 25 475 rlineto
          hintmask 10111000
          240 -547 rlineto
          44 hlineto
          237 546 27 -474 -88 -21 rlineto
          hintmask 01111000
          -46 304 46 vlineto
          -96 22 -34 565 90 21 rlineto
          46 -206 vlineto
          -227 -522 -225 522 rlineto
          -214 hlineto
          endchar
        </CharString>
        <CharString name="N">
          205 136 70 417 73 vstem
          -58 callsubr
          endchar
        </CharString>
        <CharString name="Ntilde">
          205 762 48 callsubr
          136 70 417 73 hintmask 10110000
          -58 callsubr
          -302 188 rmoveto
          hintmask 01110000
          -53 callsubr
          hintmask 10110000
          -60 callsubr
        </CharString>
        <CharString name="O">
          -97 callsubr
          endchar
        </CharString>
        <CharString name="OE">
          476 -15 59 -44 44 -44 67 589 59 hstemhm
          51 128 417 111 hintmask 10011100
          707 633 rmoveto
          225 hlineto
          42 -138 rlineto
          46 205 -424 -94 hlineto
          67 -49 -65 42 -96 hhcurveto
          -67 callsubr
          96 65 41 67 49 hvcurveto
          hintmask 01011100
          -93 424 vlineto
          30 46 callsubr
          hintmask 00111100
          -73 -149 rlineto
          -224 266 hlineto
          223 -19 rlineto
          89 vlineto
          -223 -20 rlineto
          hintmask 10011100
          -321 -339 rmoveto
          -138 -69 137 169 169 67 137 140 142 75 -129 -182 -163 -80 -138 -137 hvcurveto
          endchar
        </CharString>
        <CharString name="Oacute">
          -97 callsubr
          -72 723 -68 callsubr
        </CharString>
        <CharString name="Ocircumflex">
          -97 callsubr
          44 869 -74 callsubr
        </CharString>
        <CharString name="Odieresis">
          -6 callsubr
          46 131 10 callsubr
          42 2 callsubr
          27 -102 callsubr
          -165 783 -88 callsubr
        </CharString>
        <CharString name="Ograve">
          -97 callsubr
          -57 860 -63 callsubr
        </CharString>
        <CharString name="Oslash">
          -40 729 -704 365 hstemhm
          144 242 -150 318 hintmask 01100000
          -57 callsubr
          132 -46 118 -98 63 hvcurveto
          41 76 rlineto
          hintmask 10010000
          -64 hlineto
          -27 -50 rlineto
          hintmask 01100000
          17 -40 -47 9 -54 hhcurveto
          -232 -103 -165 -200 -129 43 -115 92 -64 hvcurveto
          hintmask 10100000
          -42 -82 rlineto
          65 hlineto
          hintmask 01010000
          27 53 rlineto
          hintmask 01100000
          -18 43 49 -10 58 hhcurveto
          59 vmoveto
          -46 -38 14 25 -29 hvcurveto
          260 497 rlineto
          40 -57 20 -82 -91 vvcurveto
          -169 -65 -137 -142 vhcurveto
          612 vmoveto
          41 36 -12 -21 29 hvcurveto
          -259 -493 rlineto
          -37 56 -17 78 86 vvcurveto
          169 65 137 142 vhcurveto
          endchar
        </CharString>
        <CharString name="Otilde">
          -6 callsubr
          62 48 callsubr
          51 128 414 128 hintmask 11101100
          -106 callsubr
          76 813 rmoveto
          hintmask 11011100
          -53 callsubr
          hintmask 11101100
          -60 callsubr
        </CharString>
        <CharString name="P">
          17 21 -21 261 63 313 63 -23 callsubr
          219 49 callsubr
          44 hmoveto
          337 46 hlineto
          -122 22 rlineto
          198 vlineto
          -3 19 23 -2 25 hhcurveto
          156 122 65 155 156 -114 63 -180 hvcurveto
          -266 -46 hlineto
          -50 callsubr
          215 591 rmoveto
          51 hlineto
          94 74 -48 -108 -109 -76 -48 -84 -26 -18 2 2 -15 hvcurveto
          endchar
        </CharString>
        <CharString name="Q">
          150 -142 50 77 57 614 59 10 callsubr
          409 128 vstem
          384 -15 rmoveto
          3 hlineto
          -101 58 105 -26 109 hhcurveto
          37 38 3 4 36 hvcurveto
          12 43 -115 -4 -109 27 -56 71 rlinecurve
          148 47 66 138 163 vvcurveto
          200 -101 165 -231 -232 -101 -165 -200 -201 101 -164 232 vhcurveto
          57 vmoveto
          -142 -63 139 169 169 63 137 142 142 62 -137 -169 -169 -48 -139 -156 hvcurveto
          endchar
        </CharString>
        <CharString name="R">
          80 21 -21 309 60 268 21 callsubr
          694 45 rmoveto
          -88 22 -139 257 rlineto
          83 28 55 55 97 vvcurveto
          160 -148 36 -130 vhcurveto
          -283 -46 hlineto
          -50 callsubr
          -46 307 -19 callsubr
          241 88 vlineto
          165 -309 rlineto
          182 hlineto
          -215 506 rmoveto
          -89 -67 -48 -95 vhcurveto
          -58 268 58 hlineto
          95 67 -43 -88 hvcurveto
          endchar
        </CharString>
        <CharString name="S">
          -28 -15 66 449 -20 172 63 hstem
          61 109 262 110 vstem
          63 17 rmoveto
          68 -23 81 -7 67 -2 rrcurveto
          148 -5 115 70 138 vvcurveto
          133 -111 54 -102 42 vhcurveto
          -108 45 -51 30 58 vvcurveto
          65 56 37 92 33 26 -3 -5 26 vhcurveto
          50 -144 rlineto
          45 hlineto
          5 192 rlineto
          16 -65 -65 7 -75 hhcurveto
          -135 -102 -61 -114 -123 61 -44 141 -61 hvcurveto
          96 -41 73 -41 -65 vvcurveto
          -84 -78 -30 -96 -40 -29 4 9 -29 vhcurveto
          -51 150 rlineto
          -46 hlineto
          endchar
        </CharString>
        <CharString name="T">
          38 21 -21 633 67 hstem
          266 37 callsubr
          77 488 rmoveto
          44 145 145 8 rlineto
          -573 16 callsubr
          -19 callsubr
          573 vlineto
          144 -8 45 -145 rlineto
          47 212 -595 -212 hlineto
          endchar
        </CharString>
        <CharString name="Thorn">
          17 152 60 271 21 callsubr
          259 152 rmoveto
          68 hlineto
          174 104 60 138 137 -104 59 -174 hvcurveto
          -68 86 -5 callsubr
          307 -19 callsubr
          144 vmoveto
          271 53 vlineto
          95 72 -35 -98 -94 -72 -44 -95 hvcurveto
          endchar
        </CharString>
        <CharString name="U">
          -98 callsubr
          endchar
        </CharString>
        <CharString name="Uacute">
          -98 callsubr
          -422 113 -68 callsubr
        </CharString>
        <CharString name="Ucircumflex">
          -98 callsubr
          -302 259 -74 callsubr
        </CharString>
        <CharString name="Udieresis">
          173 -15 77 638 -20 81 131 hstem
          114 123 15 2 callsubr
          8 -100 callsubr
          -516 173 -88 callsubr
        </CharString>
        <CharString name="Ugrave">
          -98 callsubr
          -467 250 -63 callsubr
        </CharString>
        <CharString name="V">
          85 14 -21 707 -20 hstem
          706 700 rmoveto
          -241 -46 hlineto
          79 -22 -160 -475 -170 480 82 17 rlineto
          46 -303 -46 vlineto
          89 -22 233 -639 rlineto
          79 hlineto
          220 639 6 callsubr
          endchar
        </CharString>
        <CharString name="W">
          408 14 -21 707 -20 hstem
          -11 654 rmoveto
          87 -21 208 -640 rlineto
          77 hlineto
          147 522 174 -522 rlineto
          79 hlineto
          170 639 31 callsubr
          -242 -46 vlineto
          81 -22 -118 -448 -167 516 rlineto
          -85 hlineto
          -144 -518 -143 454 84 18 rlineto
          46 -300 vlineto
          endchar
        </CharString>
        <CharString name="X">
          115 -30 callsubr
          621 632 rmoveto
          31 callsubr
          -241 -46 vlineto
          69 -20 -151 -208 39 -57 -191 270 64 15 rlineto
          46 -291 -46 vlineto
          89 -23 203 -291 9 12 40 -50 -12 -16 159 -227 -64 -13 rlineto
          -46 291 46 vlineto
          -82 19 -215 304 rlineto
          -243 -303 rmoveto
          70 -20 rlineto
          -46 -242 46 vlineto
          92 22 197 272 37 -54 rlineto
          endchar
        </CharString>
        <CharString name="Y">
          78 289 37 callsubr
          453 -45 callsubr
          217 -314 rlineto
          -252 16 callsubr
          -19 callsubr
          255 vlineto
          194 309 31 callsubr
          -245 vlineto
          endchar
        </CharString>
        <CharString name="Yacute">
          78 289 37 callsubr
          453 -45 callsubr
          217 -314 rlineto
          -252 16 callsubr
          -19 callsubr
          255 vlineto
          194 309 31 callsubr
          -245 vlineto
          -170 67 -68 callsubr
        </CharString>
        <CharString name="Z">
          26 0 62 576 62 hstem
          101 490 rmoveto
          43 143 298 8 -391 -579 rlineto
          -62 535 vlineto
          6 46 callsubr
          -49 -149 -298 -5 388 576 rlineto
          62 -532 -210 vlineto
          endchar
        </CharString>
        <CharString name="a">
          4 callsubr
          -89 callsubr
          endchar
        </CharString>
        <CharString name="aacute">
          4 callsubr
          255 -20 -89 callsubr
          68 460 -72 callsubr
        </CharString>
        <CharString name="acircumflex">
          -65 -15 -20 121 -21 hstem
          -107 callsubr
          150 638 -77 callsubr
        </CharString>
        <CharString name="acute">
          -383 580 -21 211 -20 hstem
          18 588 -72 callsubr
        </CharString>
        <CharString name="acute.case">
          33 callsubr
          7 767 -68 callsubr
        </CharString>
        <CharString name="adieresis">
          -65 32 33 hstem
          124 133 177 106 vstem
          -107 callsubr
          -52 539 -95 callsubr
        </CharString>
        <CharString name="ae">
          216 -15 67 194 47 167 55 hstem
          34 126 179 120 214 37 callsubr
          796 -7 callsubr
          -55 126 -160 -69 -53 -26 -40 -39 vhcurveto
          41 -29 -54 25 -87 hhcurveto
          -108 -73 -48 0 hvcurveto
          2 -36 22 -41 29 -24 112 102 rcurveline
          92 13 -56 -80 hvcurveto
          -35 vlineto
          -213 -92 -61 -112 -98 79 -41 76 135 63 103 0 hvcurveto
          -82 50 101 -21 61 3 callsubr
          -117 -60 94 103 -8 hvcurveto
          -228 -195 rmoveto
          -44 -27 31 45 61 52 57 127 hvcurveto
          -130 vlineto
          0 -35 -64 -73 vhcurveto
          349 408 rmoveto
          70 -2 20 -80 3 -71 -214 -14 rcurveline
          92 6 42 75 73 hhcurveto
          endchar
        </CharString>
        <CharString name="agrave">
          4 callsubr
          254 -20 -89 callsubr
          37 641 -66 callsubr
        </CharString>
        <CharString name="ampersand">
          150 -15 60 -45 45 278 67 268 57 hstemhm
          51 113 -51 108 174 109 hintmask 10110110
          692 345 rmoveto
          45 -205 -45 vlineto
          60 -22 -6 -36 -11 -40 -17 -38 rlinecurve
          -163 162 rlineto
          70 36 84 62 94 vvcurveto
          101 -94 51 -101 -101 -95 -45 -110 -65 36 -61 59 -64 vhcurveto
          hintmask 10111010
          -70 -37 -87 -64 -103 vvcurveto
          -124 111 -57 122 100 70 41 56 50 vhcurveto
          hintmask 01111010
          86 -82 rlineto
          170 45 hlineto
          -100 24 -101 97 27 54 14 57 6 46 rlinecurve
          -146 -198 rmoveto
          -48 -41 -56 -32 -74 hhcurveto
          -86 -39 61 60 47 21 56 68 54 hvcurveto
          hintmask 10110110
          -32 238 rmoveto
          64 42 33 44 48 40 -33 -63 -62 -40 -54 -47 -29 vhcurveto
          -41 44 -46 42 58 vvcurveto
          endchar
        </CharString>
        <CharString name="aring">
          -65 32 434 -401 402 hstemhm
          124 416 -283 177 hintmask 10010000
          434 -15 rmoveto
          hintmask 10100000
          61 45 47 0 hvcurveto
          hintmask 01100000
          33 -78 278 vlineto
          hintmask 01010000
          -56 callsubr
          hintmask 10100000
          -87 callsubr
          hintmask 10010000
          -86 callsubr
          10 543 -43 callsubr
        </CharString>
        <CharString name="asciicircum">
          -43 288 -21 448 -20 hstem
          51 267 rmoveto
          74 hlineto
          160 356 162 -356 rlineto
          75 hlineto
          -211 448 rlineto
          -50 hlineto
          endchar
        </CharString>
        <CharString name="asciitilde">
          -68 269 74 27 74 hstem
          377 269 rmoveto
          89 30 82 81 10 hvcurveto
          -63 12 rlineto
          -70 -9 -20 -31 -32 -61 -62 101 -80 hhcurveto
          -94 -27 -82 -80 -9 hvcurveto
          63 -13 rlineto
          74 7 21 27 35 61 62 -101 79 hhcurveto
          endchar
        </CharString>
        <CharString name="asterisk">
          -146 414 -21 367 -20 hstem
          211 66 vstem
          259 604 rmoveto
          18 156 rlineto
          -84 hlineto
          18 -156 -141 66 -26 -79 152 -33 -106 -114 69 -51 76 136 78 -135 67 49 -106 114 153 34 -26 78 rlineto
          endchar
        </CharString>
        <CharString name="at">
          292 -110 56 153 56 340 40 127 53 hstem
          53 91 109 98 454 63 vstem
          502 142 rmoveto
          -25 14 -13 35 -5 vhcurveto
          131 -17 186 137 183 vvcurveto
          182 -149 131 -222 -254 -190 -182 -246 -272 213 -125 206 83 82 20 39 67 vhcurveto
          -20 34 rlineto
          -25 -60 -64 -12 -62 hhcurveto
          -185 -169 111 229 221 164 155 191 176 130 -109 -143 -133 -92 -123 -121 1 hvcurveto
          88 341 rlineto
          28 -51 -47 11 -54 hhcurveto
          -150 -125 -140 -174 -89 51 -33 48 65 53 39 44 37 hvcurveto
          0 -5 -15 -25 vvcurveto
          -103 21 rmoveto
          -31 -17 30 47 119 83 136 110 14 17 -3 -4 12 hvcurveto
          -57 -218 rlineto
          -55 -35 -54 -52 -42 hhcurveto
          endchar
        </CharString>
        <CharString name="atilde">
          -65 38 callsubr
          -107 callsubr
          186 551 -46 callsubr
        </CharString>
        <CharString name="b">
          -24 -15 56 399 75 285 -20 hstem
          74 119 233 124 vstem
          193 800 rmoveto
          -44 hlineto
          -64 callsubr
          -683 vlineto
          -34 55 69 -17 63 hhcurveto
          146 143 94 190 172 -103 74 -112 -46 -54 -15 -32 -42 hvcurveto
          233 -203 rmoveto
          -151 -76 -73 -98 -19 -20 2 5 -20 vhcurveto
          366 vlineto
          16 33 33 10 31 hhcurveto
          76 60 -54 -121 hvcurveto
          endchar
        </CharString>
        <CharString name="backslash">
          -173 -30 callsubr
          338 hmoveto
          77 hlineto
          -311 700 rlineto
          -76 hlineto
          endchar
        </CharString>
        <CharString name="bar">
          -382 -219 -21 1000 -20 hstem
          85 65 vstem
          150 760 rmoveto
          -65 -1000 65 hlineto
          endchar
        </CharString>
        <CharString name="braceleft">
          -239 29 callsubr
          129 118 vstem
          359 -128 rmoveto
          48 -30 vlineto
          -59 -23 37 68 hvcurveto
          168 vlineto
          67 -35 44 -76 13 vhcurveto
          1 vlineto
          75 12 36 46 65 vvcurveto
          166 vlineto
          69 23 36 59 vhcurveto
          30 48 -86 hlineto
          -95 -49 -51 -92 hvcurveto
          -172 vlineto
          -81 -51 -21 -67 -3 vhcurveto
          -47 vlineto
          67 -2 51 -20 -84 vvcurveto
          -171 vlineto
          -87 51 -57 93 vhcurveto
          endchar
        </CharString>
        <CharString name="braceright">
          -240 29 callsubr
          131 118 vstem
          19 -128 rmoveto
          66 hlineto
          93 71 57 87 hvcurveto
          171 vlineto
          84 51 20 67 2 vhcurveto
          47 vlineto
          -67 3 -51 21 81 vvcurveto
          172 vlineto
          92 -49 51 -95 vhcurveto
          -86 -48 30 hlineto
          60 22 -36 -69 hvcurveto
          -166 vlineto
          -65 36 -46 75 -12 vhcurveto
          -1 vlineto
          -77 -13 -34 -44 -67 vvcurveto
          -168 vlineto
          -68 -22 -37 -60 vhcurveto
          -30 hlineto
          endchar
        </CharString>
        <CharString name="bracketleft">
          32 callsubr
          86 114 vstem
          314 -128 rmoveto
          55 -114 778 114 55 -228 -888 vlineto
          endchar
        </CharString>
        <CharString name="bracketright">
          32 callsubr
          133 114 vstem
          247 -128 rmoveto
          888 -228 -55 114 -778 -114 -55 vlineto
          endchar
        </CharString>
        <CharString name="brokenbar">
          -376 -219 -21 1000 -20 hstem
          88 65 vstem
          153 760 rmoveto
          -65 -400 65 hlineto
          -200 vmoveto
          -65 -400 65 hlineto
          endchar
        </CharString>
        <CharString name="bullet">
          -175 228 -21 300 -20 hstem
          71 357 rmoveto
          -82 68 -68 82 82 68 68 82 82 -68 68 -82 -82 -68 -68 -82 vhcurveto
          endchar
        </CharString>
        <CharString name="c">
          -127 -15 66 464 -20 hstem
          43 122 vstem
          296 -15 rmoveto
          -51 callsubr
          -171 115 -92 138 hvcurveto
          endchar
        </CharString>
        <CharString name="caron">
          -265 603 24 callsubr
          334 767 rmoveto
          -46 24 -113 -127 -112 127 -45 -24 115 -185 rlineto
          84 hlineto
          endchar
        </CharString>
        <CharString name="caron.case">
          -273 788 -21 170 -20 hstem
          134 767 rmoveto
          84 hlineto
          135 146 -46 24 -131 -94 -122 93 -51 -23 rlineto
          endchar
        </CharString>
        <CharString name="ccedilla">
          -127 79 -20 401 55 hstem
          286 10 vstem
          389 -126 15 callsubr
          5 19 rlineto
          7 hlineto
          -51 callsubr
          -146 84 -88 110 -23 hvcurveto
          -16 -60 -62 callsubr
        </CharString>
        <CharString name="cedilla">
          -274 -240 59 190 -20 hstem
          184 95 vstem
          279 -126 15 callsubr
          11 43 rlineto
          -53 hlineto
          -21 -78 -62 callsubr
        </CharString>
        <CharString name="cent">
          -105 -140 190 -65 65 409 55 -55 189 hstemhm
          48 122 87 65 hintmask 10011100
          322 648 rmoveto
          -65 -136 hlineto
          -123 -17 -86 -92 -153 vvcurveto
          -152 90 -92 119 -18 vhcurveto
          -128 65 vlineto
          hintmask 01101100
          125 vlineto
          59 3 45 14 41 17 -12 49 rcurveline
          -24 -7 -52 -12 -53 1 rrcurveto
          -4 409 hlineto
          86 -91 rlineto
          33 21 25 48 36 vvcurveto
          -34 19 -52 19 -58 3 rrcurveto
          hintmask 10011100
          -152 -264 rmoveto
          104 30 66 57 26 vhcurveto
          -378 vlineto
          -51 26 -36 57 99 vvcurveto
          endchar
        </CharString>
        <CharString name="circumflex">
          -266 578 24 callsubr
          217 766 -77 callsubr
        </CharString>
        <CharString name="circumflex.case">
          -262 764 -21 170 -20 hstem
          227 913 -74 callsubr
        </CharString>
        <CharString name="colon">
          -357 -15 135 205 135 hstem
          62 135 vstem
          62 -3 callsubr
          340 vmoveto
          -37 31 -31 37 37 30 31 14 callsubr
        </CharString>
        <CharString name="comma">
          -44 callsubr
        </CharString>
        <CharString name="copyright">
          214 -10 59 89 47 345 46 90 59 hstem
          48 60 110 83 423 59 -41 callsubr
          60 hmoveto
          171 136 138 172 171 137 -137 -172 -171 -137 -137 -171 -172 -136 137 171 vhcurveto
          415 -79 rmoveto
          -45 -91 rlineto
          -2 -13 -14 0 -10 hhcurveto
          -98 -42 62 110 114 45 59 97 14 16 -2 -2 15 hvcurveto
          26 -84 rlineto
          35 111 hlineto
          12 -25 -48 11 -40 hhcurveto
          -146 -72 -81 -138 -139 73 -80 135 46 44 16 13 25 hvcurveto
          15 111 rlineto
          endchar
        </CharString>
        <CharString name="currency">
          -8 139 -21 30 79 263 79 31 -20 hstem
          94 79 264 79 vstem
          65 172 rmoveto
          54 -54 66 67 rlineto
          -29 43 29 -8 48 hhcurveto
          47 29 8 29 44 hvcurveto
          67 -66 53 53 -67 67 rlineto
          29 44 9 29 47 vvcurveto
          44 -10 31 -28 44 vhcurveto
          67 67 -53 54 -68 -68 rlineto
          29 -44 -28 9 -47 hhcurveto
          -48 -29 -9 -28 -43 hvcurveto
          -67 68 -54 -54 67 -68 rlineto
          -28 -44 -9 -31 -44 vvcurveto
          -47 9 -30 29 -43 vhcurveto
          305 120 rmoveto
          -73 -60 -59 -72 -73 -59 59 73 72 59 59 73 72 60 -59 -72 vhcurveto
          endchar
        </CharString>
        <CharString name="d">
          0 -15 75 400 55 285 -20 hstem
          43 123 234 120 vstem
          520 800 rmoveto
          -45 hlineto
          -64 callsubr
          -213 vlineto
          7 -24 -24 2 -25 hhcurveto
          -147 -137 -93 -190 -170 105 -77 106 52 55 20 43 41 hvcurveto
          -7 4 22 -56 63 hhcurveto
          58 49 -31 callsubr
          vlineto
          -354 171 rmoveto
          153 73 71 97 21 21 -3 -7 22 vhcurveto
          -353 vlineto
          -26 -34 -34 -11 -36 hhcurveto
          -63 -67 53 123 hvcurveto
          endchar
        </CharString>
        <CharString name="degree">
          -248 462 63 167 63 hstem
          38 63 167 63 vstem
          38 609 rmoveto
          -81 65 -66 81 82 65 66 81 81 -65 65 -82 -81 -65 -65 -81 vhcurveto
          63 hmoveto
          45 38 38 45 46 38 -38 -45 -46 -38 -38 -46 -45 -38 38 46 vhcurveto
          endchar
        </CharString>
        <CharString name="dieresis">
          -217 601 131 hstem
          32 9 callsubr
          vstem
          32 667 -95 callsubr
        </CharString>
        <CharString name="dieresis.case">
          -241 761 131 hstem
          20 2 callsubr
          vstem
          20 827 -88 callsubr
        </CharString>
        <CharString name="divide">
          -74 119 135 69 68 68 136 hstem
          205 134 vstem
          205 187 rmoveto
          27 callsubr
          30 -38 -36 -31 -30 -37 vhcurveto
          340 vmoveto
          27 callsubr
          31 -38 -36 -31 -31 -37 vhcurveto
          -158 -204 rmoveto
          449 68 -449 hlineto
          endchar
        </CharString>
        <CharString name="dollar">
          -19 -62 -21 68 63 452 -20 174 60 63 -20 hstem
          64 108 99 65 101 113 vstem
          60 32 rmoveto
          53 -25 73 -21 85 -1 rrcurveto
          -68 65 71 vlineto
          120 12 94 67 128 vvcurveto
          -3 115 -96 58 -92 37 -7 3 -9 3 -7 4 rrcurveto
          239 vlineto
          27 -1 25 -3 23 -4 15 -48 17 -49 16 -49 rrcurveto
          46 184 hlineto
          -45 15 -57 12 -67 3 rrcurveto
          63 -65 -63 vlineto
          -121 -9 -86 -65 -106 vvcurveto
          -123 108 -57 99 -38 vhcurveto
          -268 -10 vlineto
          -39 -36 6 9 -29 hvcurveto
          -51 153 rlineto
          -46 hlineto
          377 -47 rmoveto
          -60 -42 -37 -59 -15 vhcurveto
          231 vlineto
          60 -30 41 -32 -57 vvcurveto
          -265 379 rmoveto
          52 38 36 61 13 vhcurveto
          -208 vlineto
          -59 26 -40 31 50 vvcurveto
          endchar
        </CharString>
        <CharString name="dotlessi">
          -270 21 -21 -76 callsubr
          endchar
        </CharString>
        <CharString name="e">
          -84 callsubr
          endchar
        </CharString>
        <CharString name="eacute">
          -84 callsubr
          -18 128 -72 callsubr
        </CharString>
        <CharString name="ecircumflex">
          -27 callsubr
          63 -21 209 -20 -94 callsubr
          45 306 -77 callsubr
        </CharString>
        <CharString name="edieresis">
          -27 callsubr
          86 131 hstemhm
          42 119 -47 9 callsubr
          hintmask 11111010
          -103 callsubr
          hintmask 11110110
          -162 207 -95 callsubr
        </CharString>
        <CharString name="egrave">
          -84 callsubr
          -49 309 -66 callsubr
        </CharString>
        <CharString name="eight">
          -26 -15 57 614 59 hstemhm
          66 101 -83 114 214 89 -89 115 hintmask 11100100
          66 169 rmoveto
          -120 116 -64 111 113 121 68 127 101 -63 58 -71 46 vhcurveto
          hintmask 11011000
          45 32 63 60 79 vvcurveto
          106 -101 53 -105 -107 -104 -56 -109 -86 58 -53 67 -45 vhcurveto
          hintmask 11101000
          -39 -24 -104 -71 -102 vvcurveto
          346 -7 rmoveto
          -79 -60 -41 -60 -62 -63 42 85 47 26 65 68 52 vhcurveto
          77 -48 74 -46 -77 vvcurveto
          hintmask 11011000
          -214 403 rmoveto
          59 47 32 49 56 51 -36 -72 -33 -17 -57 -43 -42 vhcurveto
          -74 43 -69 39 67 vvcurveto
          endchar
        </CharString>
        <CharString name="emdash">
          539 325 64 hstem
          1082 305 rmoveto
          -1010 -64 1010 hlineto
          endchar
        </CharString>
        <CharString name="endash">
          39 325 64 hstem
          582 305 rmoveto
          -510 -64 510 hlineto
          endchar
        </CharString>
        <CharString name="equal">
          -20 241 67 98 68 hstem
          69 241 rmoveto
          459 67 -459 hlineto
          98 vmoveto
          459 68 -459 hlineto
          endchar
        </CharString>
        <CharString name="eth">
          -2 -16 55 369 70 hstem
          45 126 249 128 vstem
          177 523 rmoveto
          142 87 50 -47 33 -64 10 -73 rlinecurve
          32 -37 -57 20 -52 hhcurveto
          -139 -82 -106 -132 -146 69 -110 174 198 62 150 176 157 -61 116 -91 74 hvcurveto
          66 40 rlineto
          69 vlineto
          -118 -73 -59 36 -68 21 -70 7 rlinecurve
          -65 vlineto
          45 -7 41 -15 36 -23 -92 -56 rcurveline
          115 -552 rmoveto
          -88 -33 97 100 124 63 48 78 35 38 -14 -22 30 hvcurveto
          2 -31 3 -29 -38 vvcurveto
          -113 -20 -122 -108 vhcurveto
          endchar
        </CharString>
        <CharString name="exclam">
          -333 -14 136 107 -21 492 -20 hstemhm
          74 135 -110 106 hintmask 11101000
          99 208 rmoveto
          86 hlineto
          20 492 rlineto
          -126 hlineto
          hintmask 11110000
          -5 -645 rmoveto
          -37 31 -32 37 37 30 32 14 callsubr
        </CharString>
        <CharString name="exclamdown">
          -350 -199 -20 533 -21 86 136 hstemhm
          66 135 -110 106 hintmask 11101000
          71 -199 rmoveto
          126 hlineto
          -20 492 rlineto
          -86 hlineto
          -25 153 rmoveto
          -37 31 -30 37 37 30 30 37 37 -30 32 -37 vhcurveto
          hintmask 11110000
          -37 -31 -32 -37 hvcurveto
          endchar
        </CharString>
        <CharString name="f">
          -201 446 72 242 55 hstem
          117 11 callsubr
          427 683 rmoveto
          31 16 28 36 2 47 rrcurveto
          0 -82 33 -95 -133 -61 -84 -157 vhcurveto
          -75 vlineto
          -84 -6 rlineto
          -47 84 -383 -25 callsubr
          -43 337 43 vlineto
          -133 20 rlineto
          383 152 72 vlineto
          -152 -11 rlineto
          67 vlineto
          157 46 29 47 vhcurveto
          endchar
        </CharString>
        <CharString name="five">
          -89 -15 61 335 65 158 96 40 -20 hstem
          356 125 vstem
          22 27 rmoveto
          0 64 -42 119 138 138 89 158 98 -72 116 -159 -32 -36 -4 -9 -35 vhcurveto
          15 171 rlineto
          276 hlineto
          46 118 -40 18 -42 -40 rlineto
          -297 hlineto
          -29 -319 22 -13 rlineto
          8 37 30 5 28 hhcurveto
          114 49 -73 -84 -120 -82 -58 -101 -41 -43 8 20 -45 hvcurveto
          endchar
        </CharString>
        <CharString name="foundryicon">
          439 138 59 -18 33 -1 29 11 33 1 31 hstemhm
          51 38 -38 107 136 170 -93 93 12 90 23 35 75 36 28 36 23 170 -89 89 -33 33 hintmask 1011110101111010
          1007 282 rmoveto
          1 -4 -2 1 -5 hhcurveto
          -7 -7 -4 -6 -5 hvcurveto
          6 -8 -11 4 -12 hhcurveto
          -27 -16 -16 -21 -12 4 -10 10 -6 hvcurveto
          -9 -8 -5 -10 -12 vvcurveto
          -8 3 -9 7 -5 vhcurveto
          hintmask 1011110101111001
          46 -29 27 hlineto
          2 5 4 8 10 vvcurveto
          25 -14 11 -25 vhcurveto
          -18 hlineto
          hintmask 0101110101111100
          15 vlineto
          hintmask 1011110101111100
          -1 3 4 0 5 hhcurveto
          31 14 17 18 1 0 2 -1 2 hvcurveto
          16 hlineto
          -739 hmoveto
          31 -43 -31 9 vlineto
          -11 -42 -5 24 -14 49 rlineto
          -38 -31 10 hlineto
          24 -69 rlineto
          14 hlineto
          -9 -4 -7 -2 -10 hhcurveto
          -17 -26 hlineto
          -4 4 11 -3 11 hhcurveto
          19 16 8 29 8 hvcurveto
          hintmask 0101101101111100
          -87 37 rmoveto
          -32 hlineto
          hintmask 1011110101111100
          -25 -12 13 24 21 10 15 19 3 3 0 -1 3 hvcurveto
          -15 vlineto
          hintmask 0101101101111100
          31 40 hlineto
          4 -13 -14 3 -12 hhcurveto
          -45 -23 -28 -43 -41 25 -25 41 15 15 3 5 11 hvcurveto
          590 -8 rmoveto
          32 19 20 33 33 -19 19 -31 -31 -19 -20 -33 -33 18 -19 31 hvcurveto
          -264 98 rmoveto
          -26 25 vlineto
          17 5 -5 -5 hvcurveto
          hintmask 1011110101111100
          -1 -16 vlineto
          -28 -11 -12 -18 hvcurveto
          hintmask 0101110011111100
          -20 15 -11 19 9 9 2 6 7 vhcurveto
          -5 4 7 -2 11 hhcurveto
          7 7 1 4 6 hvcurveto
          27 -11 34 vlineto
          24 -15 14 -31 -13 -11 -3 -4 -12 vhcurveto
          -52 -65 rmoveto
          -13 -9 3 9 -3 hvcurveto
          55 hlineto
          1 7 1 6 5 vvcurveto
          24 -17 18 -27 -33 -16 -22 -32 -32 18 -19 35 12 14 2 5 11 vhcurveto
          26 vlineto
          361 39 rmoveto
          -39 -9 26 callsubr
          -5 1 -4 -4 callsubr
          hintmask 0101110101111100
          -517 hmoveto
          -39 -10 26 callsubr
          -4 1 -5 -4 callsubr
          307 -43 rmoveto
          -19 9 -9 18 8 7 1 3 7 vhcurveto
          28 -14 104 -47 -31 12 vlineto
          62 -86 rmoveto
          -10 7 -9 13 14 8 9 10 11 -8 9 -14 -13 -7 -9 -11 vhcurveto
          98 7 rmoveto
          -9 -5 7 19 17 5 7 9 9 5 -7 -17 -19 -5 -7 -9 hvcurveto
          187 41 rmoveto
          10 5 5 7 6 4 -5 -10 -10 -4 -5 -6 -7 -5 5 10 vhcurveto
          -416 -43 rmoveto
          -6 -4 3 6 5 4 4 9 hvcurveto
          8 -15 hlineto
          -3 -4 -3 0 -4 hhcurveto
          -101 54 rmoveto
          9 3 -6 -10 hvcurveto
          -25 hlineto
          11 2 4 5 7 hhcurveto
          endchar
        </CharString>
        <CharString name="four">
          -49 6 -21 153 70 492 -20 hstem
          335 107 vstem
          8 181 rmoveto
          -43 327 -153 107 153 79 70 -79 492 -49 vlineto
          -277 -492 rmoveto
          219 292 rlineto
          -292 vlineto
          endchar
        </CharString>
        <CharString name="foursuperior">
          -226 307 -21 85 47 292 -20 hstem
          224 81 vstem
          20 405 -20 callsubr
          endchar
        </CharString>
        <CharString name="fraction">
          -220 21 -21 715 -20 hstem
          413 715 -42 callsubr
        </CharString>
        <CharString name="g">
          -7 -287 55 187 102 104 54 240 52 18 -20 hstemhm
          18 122 -82 115 232 115 -48 92 hintmask 1110110100000000
          603 431 rmoveto
          3 13 1 17 11 vvcurveto
          19 -4 18 -8 16 vhcurveto
          -155 -59 rlineto
          hintmask 1111001100000000
          26 -40 -52 15 -60 hhcurveto
          -135 -95 -78 -95 -63 36 -55 65 -30 hvcurveto
          -116 -101 5 -45 36 -36 37 -20 rlinecurve
          hintmask 1111010010000000
          -45 -22 -58 -42 -72 vvcurveto
          -93 95 -42 155 189 107 97 95 105 -79 47 -117 vhcurveto
          -65 hlineto
          -96 -28 12 30 -19 hvcurveto
          58 68 rlineto
          -4 22 23 -2 25 hhcurveto
          hintmask 1111010100000000
          147 85 78 95 36 -14 33 -24 28 hvcurveto
          -141 -476 rmoveto
          hintmask 1111010010000000
          98 33 -26 -51 -59 -72 -51 -122 -77 -61 29 68 37 15 26 23 27 hvcurveto
          110 260 rmoveto
          hintmask 1111001100000000
          -76 -39 50 69 69 39 52 76 77 40 -52 -69 -69 -42 -50 -75 hvcurveto
          endchar
        </CharString>
        <CharString name="germandbls">
          48 -15 55 426 53 186 55 hstemhm
          106 119 53 98 70 119 -41 114 hintmask 11111100
          565 538 rmoveto
          129 -76 93 -158 -154 -71 -93 -129 vhcurveto
          -475 -25 callsubr
          -43 204 538 vlineto
          121 52 46 62 62 45 -41 -121 vhcurveto
          -24 vlineto
          -100 -68 -54 -88 -79 49 -48 78 -32 hvcurveto
          hintmask 11111010
          71 -30 48 -19 -51 vvcurveto
          -56 -52 -22 -69 -11 -6 1 1 -10 vhcurveto
          -42 109 rlineto
          -46 -143 hlineto
          -12 39 55 -11 56 hhcurveto
          116 84 51 93 92 -68 46 -89 35 hvcurveto
          -69 28 -36 26 41 vvcurveto
          41 28 28 65 vhcurveto
          hintmask 11111100
          96 hlineto
          endchar
        </CharString>
        <CharString name="grave">
          -396 583 -21 207 -20 hstem
          50 769 -66 callsubr
        </CharString>
        <CharString name="grave.case">
          33 callsubr
          51 904 -63 callsubr
        </CharString>
        <CharString name="greater">
          41 callsubr
          502 330 rmoveto
          55 vlineto
          -429 231 rlineto
          -77 vlineto
          336 -182 -336 -180 rlineto
          -77 vlineto
          endchar
        </CharString>
        <CharString name="guillemotleft">
          42 callsubr
          48 254 rmoveto
          153 -174 rlineto
          55 hlineto
          -91 190 91 190 rlineto
          -55 hlineto
          -153 -174 rlineto
          197 -30 rmoveto
          117 -157 rlineto
          49 hlineto
          -61 171 61 171 rlineto
          -49 hlineto
          -117 -157 rlineto
          endchar
        </CharString>
        <CharString name="guillemotright">
          42 callsubr
          429 286 rmoveto
          -153 174 rlineto
          -55 hlineto
          91 -190 -91 -190 rlineto
          55 hlineto
          153 174 rlineto
          -196 30 rmoveto
          -118 157 rlineto
          -49 hlineto
          61 -171 -61 -171 rlineto
          49 hlineto
          118 157 rlineto
          endchar
        </CharString>
        <CharString name="guilsinglleft">
          40 callsubr
          46 254 rmoveto
          163 -184 45 20 -91 180 91 180 -45 20 -163 -184 rlineto
          endchar
        </CharString>
        <CharString name="guilsinglright">
          40 callsubr
          258 286 rmoveto
          -163 184 -45 -20 91 -180 -91 -180 45 -20 163 184 rlineto
          endchar
        </CharString>
        <CharString name="h">
          35 442 73 hstem
          106 120 210 11 callsubr
          291 -75 callsubr
          348 -8 callsubr
          -656 -25 callsubr
          -43 270 vlineto
          endchar
        </CharString>
        <CharString name="hyphen">
          -274 235 77 hstem
          62 235 rmoveto
          219 77 -219 hlineto
          endchar
        </CharString>
        <CharString name="i">
          -271 21 -21 500 -20 98 148 hstemhm
          109 39 callsubr
          36 hmoveto
          289 43 hlineto
          20 callsubr
          437 -44 vlineto
          -73 callsubr
          hintmask 11110000
          73 609 -9 callsubr
        </CharString>
        <CharString name="iacute">
          -270 21 -21 -76 callsubr
          -196 588 -72 callsubr
        </CharString>
        <CharString name="icircumflex">
          -270 21 -21 578 -21 209 -20 -76 callsubr
          -118 766 -77 callsubr
        </CharString>
        <CharString name="idieresis">
          -270 21 -21 601 131 hstemhm
          16 131 -26 120 -25 131 hintmask 11010000
          -78 callsubr
          hintmask 11101000
          -310 667 -95 callsubr
        </CharString>
        <CharString name="igrave">
          -270 21 -21 -76 callsubr
          -222 769 -66 callsubr
        </CharString>
        <CharString name="j">
          -314 -285 -21 806 -20 98 148 hstemhm
          94 39 callsubr
          17 -306 rmoveto
          94 41 114 111 154 vvcurveto
          500 -44 -21 callsubr
          -419 vlineto
          -138 -59 -78 -62 -44 vhcurveto
          hintmask 11110000
          109 912 -9 callsubr
        </CharString>
        <CharString name="k">
          -1 500 12 callsubr
          270 43 vlineto
          -65 20 rlineto
          737 -8 callsubr
          vlineto
          499 -676 rmoveto
          -82 19 -165 223 139 152 88 20 rlineto
          43 -226 -43 vlineto
          67 -17 -183 -199 176 -241 rlineto
          186 hlineto
          endchar
        </CharString>
        <CharString name="l">
          -285 21 -21 800 12 callsubr
          290 43 vlineto
          20 callsubr
          737 -8 callsubr
          vlineto
          endchar
        </CharString>
        <CharString name="less">
          41 callsubr
          467 100 rmoveto
          77 vlineto
          -335 180 335 182 rlineto
          77 vlineto
          -429 -231 rlineto
          -55 vlineto
          endchar
        </CharString>
        <CharString name="logicalnot">
          -60 144 -21 203 64 hstem
          419 65 vstem
          55 390 rmoveto
          -64 364 -203 65 267 vlineto
          endchar
        </CharString>
        <CharString name="m">
          369 44 callsubr
          hstem
          121 119 205 120 205 119 cntrmask 00111000
          770 63 rmoveto
          -48 callsubr
          -105 -77 -64 -43 -33 -38 vhcurveto
          46 -26 -51 30 -69 hhcurveto
          -65 -56 -31 -29 -37 hvcurveto
          45 -44 vlineto
          -73 callsubr
          -43 269 43 vlineto
          -65 20 rlineto
          337 vlineto
          22 33 41 20 45 hhcurveto
          54 32 -33 -64 hvcurveto
          -282 vlineto
          -65 -20 rlineto
          -43 250 43 vlineto
          -65 20 rlineto
          295 vlineto
          13 -2 13 -2 12 vhcurveto
          23 32 43 23 48 hhcurveto
          54 32 -33 -64 hvcurveto
          endchar
        </CharString>
        <CharString name="macron">
          -158 636 64 hstem
          459 700 rmoveto
          -459 -64 459 hlineto
          endchar
        </CharString>
        <CharString name="minus">
          -29 323 68 hstem
          69 323 rmoveto
          450 68 -450 hlineto
          endchar
        </CharString>
        <CharString name="mu">
          41 -229 -21 235 70 445 -20 hstemhm
          98 76 254 119 vstemhm
          98 500 rmoveto
          -704 vlineto
          -32 25 -14 28 33 36 18 15 18 vhcurveto
          -28 47 -36 82 120 vvcurveto
          -29 23 38 -18 46 hhcurveto
          68 48 32 30 32 hvcurveto
          -16 6 20 -46 61 hhcurveto
          65 44 47 0 hvcurveto
          32 -12 vlineto
          -21 -45 9 70 hvcurveto
          357 -119 -398 vlineto
          -24 -30 -41 -23 -50 hhcurveto
          hintmask 11111000
          -65 -25 41 64 hvcurveto
          340 vlineto
          endchar
        </CharString>
        <CharString name="multiply">
          -68 163 -21 431 -20 hstem
          59 525 rmoveto
          168 -168 -168 -167 48 -47 168 167 168 -168 47 47 -168 168 168 168 -47 48 -169 -168 -167 167 rlineto
          endchar
        </CharString>
        <CharString name="n">
          50 44 callsubr
          hstem
          121 120 210 11 callsubr
          306 -75 callsubr
          48 -45 vlineto
          -73 callsubr
          -43 270 vlineto
          endchar
        </CharString>
        <CharString name="nbspace">
          -386 endchar
        </CharString>
        <CharString name="nine">
          -48 -15 58 221 79 317 55 hstem
          34 124 246 113 vstem
          108 -15 rmoveto
          8 hlineto
          248 153 185 230 183 -85 132 -168 -153 -77 -107 -123 -122 71 -99 137 78 54 40 21 23 hvcurveto
          -25 -157 -97 -124 -167 -1 rrcurveto
          179 300 rmoveto
          -84 -45 70 89 79 42 79 70 88 46 -113 -138 hvcurveto
          -28 vlineto
          -16 -22 -42 -22 -53 hhcurveto
          endchar
        </CharString>
        <CharString name="noBreak">
          -617 endchar
        </CharString>
        <CharString name="nonmarkingreturn">
          -617 endchar
        </CharString>
        <CharString name="ntilde">
          50 44 callsubr
          87 77 -23 77 hstemhm
          121 120 210 119 hintmask 11101100
          306 -75 callsubr
          48 -45 vlineto
          -73 callsubr
          -43 270 vlineto
          108 679 -47 callsubr
        </CharString>
        <CharString name="numbersign">
          -27 21 -21 201 64 191 64 195 -20 hstem
          72 456 rmoveto
          103 hlineto
          -36 -191 rlineto
          -93 -64 82 hlineto
          -38 -201 rlineto
          65 hlineto
          38 201 rlineto
          134 hlineto
          -37 -201 rlineto
          65 hlineto
          37 201 rlineto
          126 64 -114 hlineto
          37 191 rlineto
          104 64 -93 hlineto
          38 195 rlineto
          -66 hlineto
          -37 -195 rlineto
          -134 hlineto
          37 195 rlineto
          -66 hlineto
          -36 -195 rlineto
          -116 hlineto
          168 -64 rmoveto
          136 hlineto
          -37 -191 rlineto
          -135 hlineto
          endchar
        </CharString>
        <CharString name="o">
          -82 callsubr
          endchar
        </CharString>
        <CharString name="oacute">
          -82 callsubr
          -26 603 -72 callsubr
        </CharString>
        <CharString name="ocircumflex">
          -12 callsubr
          63 -21 209 -20 -90 callsubr
          41 781 -77 callsubr
        </CharString>
        <CharString name="odieresis">
          -12 callsubr
          86 131 hstemhm
          42 126 -37 9 callsubr
          -36 125 hintmask 11110010
          -105 callsubr
          hintmask 11101100
          -166 682 -95 callsubr
        </CharString>
        <CharString name="oe">
          306 -15 55 207 48 165 55 hstem
          42 125 254 132 vstem
          885 -7 callsubr
          -55 126 -158 -85 -61 -39 -56 -38 vhcurveto
          58 -44 -69 37 -81 hhcurveto
          -146 -106 -109 -156 -156 106 -109 146 84 69 38 61 44 hvcurveto
          -59 41 67 -40 91 3 callsubr
          -121 -52 94 103 -9 hvcurveto
          -259 -207 rmoveto
          -84 -43 84 126 126 43 84 84 84 43 -84 -126 -126 -43 -84 -84 hvcurveto
          378 420 rmoveto
          68 -2 23 -81 2 -65 -212 -17 rcurveline
          91 7 39 74 73 hhcurveto
          endchar
        </CharString>
        <CharString name="ograve">
          -82 callsubr
          -48 784 -66 callsubr
        </CharString>
        <CharString name="one">
          -210 -30 callsubr
          161 122 vstem
          368 43 rmoveto
          -85 19 rlineto
          638 -47 vlineto
          -211 -111 16 -41 120 51 rlineto
          -536 vlineto
          -115 -20 rlineto
          -43 322 vlineto
          endchar
        </CharString>
        <CharString name="onehalf">
          220 -33 callsubr
          498 -156 -54 callsubr
          -176 586 -42 callsubr
        </CharString>
        <CharString name="onequarter">
          151 -33 callsubr
          124 -166 -20 callsubr
          23 413 -42 callsubr
        </CharString>
        <CharString name="onesuperior">
          -309 306 -21 425 -20 hstem
          128 88 vstem
          268 -55 callsubr
          endchar
        </CharString>
        <CharString name="ordfeminine">
          -225 394 44 113 33 100 31 hstem
          42 86 102 83 vstem
          289 394 rmoveto
          40 25 29 0 hvcurveto
          22 -41 166 vlineto
          66 -40 38 -91 -69 -53 -28 0 vhcurveto
          3 -26 21 -33 20 -11 67 67 rcurveline
          48 11 -28 -51 hvcurveto
          -21 vlineto
          -129 -59 -37 -68 -62 58 -23 44 43 29 17 15 17 hvcurveto
          -13 8 15 -19 33 hhcurveto
          -112 44 rmoveto
          -32 -17 20 23 53 55 16 47 1 hvcurveto
          -91 vlineto
          -14 -13 -20 -8 -20 hhcurveto
          endchar
        </CharString>
        <CharString name="ordmasculine">
          -227 394 35 252 34 hstem
          40 86 139 85 vstem
          195 394 rmoveto
          100 55 72 90 88 -55 71 -100 -100 -55 -71 -88 -90 55 -72 100 hvcurveto
          35 vmoveto
          -47 -22 54 73 71 22 54 47 47 23 -54 -71 -73 -23 -54 -47 hvcurveto
          endchar
        </CharString>
        <CharString name="oslash">
          -24 -50 -21 56 55 420 55 54 -20 hstem
          -22 callsubr
          vstem
          297 -15 rmoveto
          -37 callsubr
          95 -40 77 -64 46 hvcurveto
          55 100 rlineto
          -56 hlineto
          -41 -76 rlineto
          14 -33 -36 8 -39 hhcurveto
          -38 callsubr
          -97 42 -78 66 -47 hvcurveto
          -55 -100 rlineto
          57 hlineto
          42 76 rlineto
          -13 31 34 -7 38 hhcurveto
          -129 266 rmoveto
          124 45 85 84 29 25 -11 -18 19 vhcurveto
          -175 -320 rlineto
          -18 36 -9 48 56 vvcurveto
          129 -211 rmoveto
          -28 -23 9 17 -19 hvcurveto
          174 319 rlineto
          16 -35 9 -46 -53 vvcurveto
          -124 -45 -87 -84 vhcurveto
          endchar
        </CharString>
        <CharString name="otilde">
          -12 callsubr
          87 77 -23 77 hstemhm
          -22 callsubr
          hintmask 11101100
          -105 callsubr
          72 694 -47 callsubr
        </CharString>
        <CharString name="p">
          8 -279 -21 285 55 394 81 hstem
          106 120 232 124 vstem
          331 -257 rmoveto
          -105 20 rlineto
          230 vlineto
          -6 23 23 -2 26 hhcurveto
          146 138 94 190 170 -102 76 -104 -56 -56 -23 -38 -38 hvcurveto
          46 -8 callsubr
          -656 -25 callsubr
          -43 310 vlineto
          127 565 rmoveto
          -151 -73 -74 -96 -22 -20 3 7 -21 vhcurveto
          349 vlineto
          22 29 39 13 34 hhcurveto
          72 58 -52 -117 hvcurveto
          endchar
        </CharString>
        <CharString name="paragraph">
          21 -91 -21 804 68 hstem
          269 72 89 72 vstem
          502 697 rmoveto
          85 20 rlineto
          43 -326 vlineto
          -162 -63 -72 -106 -104 50 -92 173 hvcurveto
          10 -498 72 804 89 -804 72 hlineto
          endchar
        </CharString>
        <CharString name="parenleft">
          36 callsubr
          34 99 vstem
          309 -299 rmoveto
          24 29 rlineto
          -129 123 -71 195 202 vvcurveto
          200 71 196 129 124 vhcurveto
          -24 29 rlineto
          -153 -104 -122 -201 -244 vvcurveto
          -246 122 -200 153 -103 vhcurveto
          endchar
        </CharString>
        <CharString name="parenright">
          36 callsubr
          199 99 vstem
          23 -299 rmoveto
          153 103 122 200 246 vvcurveto
          244 -122 201 -153 104 vhcurveto
          -24 -29 rlineto
          129 -124 71 -196 -200 vvcurveto
          -202 -71 -195 -129 -123 vhcurveto
          endchar
        </CharString>
        <CharString name="percent">
          142 370 -20 386 -21 hstem
          191 370 rmoveto
          96 53 78 95 95 -53 77 -96 -97 -54 -77 -95 -95 54 -78 97 hvcurveto
          39 vmoveto
          -48 -14 59 75 74 14 58 48 47 14 -58 -74 -75 -14 -59 -47 hvcurveto
          378 -424 rmoveto
          97 53 78 95 95 -53 77 -97 -97 -53 -77 -95 -95 53 -78 97 hvcurveto
          39 vmoveto
          -47 -14 59 75 74 14 58 47 48 14 -58 -74 -75 -14 -59 -48 hvcurveto
          27 691 -42 callsubr
        </CharString>
        <CharString name="period">
          -389 -15 135 hstem
          46 135 vstem
          46 -3 callsubr
          endchar
        </CharString>
        <CharString name="periodcentered">
          -359 222 154 hstem
          52 154 vstem
          52 299 rmoveto
          -42 35 -35 42 42 35 35 42 42 -35 35 -42 -42 -35 -35 -42 vhcurveto
          endchar
        </CharString>
        <CharString name="plus">
          -74 148 -21 196 68 195 -20 hstem
          237 67 vstem
          237 586 rmoveto
          -195 -195 -68 195 5 callsubr
        </CharString>
        <CharString name="plusminus">
          -60 0 67 256 68 195 -20 hstem
          239 67 vstem
          54 hmoveto
          449 67 -449 hlineto
          185 519 rmoveto
          -195 -185 -68 185 5 callsubr
        </CharString>
        <CharString name="q">
          -24 -279 -21 285 81 394 55 hstem
          43 123 233 120 vstem
          294 -300 rmoveto
          310 43 hlineto
          20 callsubr
          701 vlineto
          34 -55 -69 17 -63 hhcurveto
          -147 -142 -93 -190 -172 107 -75 104 53 56 19 38 36 hvcurveto
          -279 vlineto
          -105 -20 rlineto
          -128 493 rmoveto
          149 71 75 104 19 19 -3 -5 20 vhcurveto
          -355 vlineto
          -22 -32 -36 -9 -29 hhcurveto
          -72 -64 54 116 hvcurveto
          endchar
        </CharString>
        <CharString name="question">
          -126 -15 135 93 -21 471 52 hstemhm
          141 135 -107 81 62 127 hintmask 11101100
          200 663 rmoveto
          66 46 -40 -75 -85 -68 -78 -75 -71 hvcurveto
          15 -122 rlineto
          51 hlineto
          15 93 rlineto
          104 82 85 68 109 vvcurveto
          105 -71 66 -133 -119 -81 -48 0 vhcurveto
          2 -36 18 -39 27 -22 rrcurveto
          hintmask 11110100
          59 -517 rmoveto
          -36 32 -32 36 37 30 32 36 23 callsubr
        </CharString>
        <CharString name="questiondown">
          -136 -215 52 492 -21 72 135 hstemhm
          46 127 36 135 -109 81 hintmask 11110100
          285 -163 rmoveto
          -66 -46 40 75 85 68 78 75 71 hvcurveto
          -15 122 rlineto
          -51 hlineto
          -15 -93 rlineto
          -104 -82 -85 -68 -109 vvcurveto
          -105 71 -66 133 119 81 48 0 vhcurveto
          -2 36 -18 39 -27 22 rrcurveto
          hintmask 11111000
          -59 517 rmoveto
          36 -32 32 -36 -37 -30 -32 -36 -37 30 -30 37 36 32 30 37 vhcurveto
          endchar
        </CharString>
        <CharString name="quotedbl">
          -254 501 -21 235 -20 hstem
          245 480 34 callsubr
          -143 -235 34 callsubr
          endchar
        </CharString>
        <CharString name="quotedblbase">
          -198 0 callsubr
          32 149 vstem
          56 -69 callsubr
          217 -33 rmoveto
          51 38 85 104 73 vvcurveto
          55 -30 -39 callsubr
          -28 -55 -49 -51 rlinecurve
          endchar
        </CharString>
        <CharString name="quotedblleft">
          -200 446 43 callsubr
          32 148 vstem
          176 744 7 callsubr
          45 vhcurveto
          -65 52 12 30 callsubr
          142 34 rmoveto
          -51 -39 -84 -103 -74 vvcurveto
          -54 30 -28 45 37 36 30 45 vhcurveto
          -66 52 13 30 callsubr
          endchar
        </CharString>
        <CharString name="quotedblright">
          -196 28 callsubr
          32 149 -24 callsubr
          217 -34 rmoveto
          51 38 85 104 74 vvcurveto
          54 -30 -15 callsubr
          -45 vhcurveto
          66 -52 -13 -32 -28 -55 -49 -50 rlinecurve
          endchar
        </CharString>
        <CharString name="quoteleft">
          -379 444 43 callsubr
          vstem
          176 742 7 callsubr
          46 vhcurveto
          -65 51 12 30 callsubr
          endchar
        </CharString>
        <CharString name="quoteright">
          -377 28 callsubr
          -24 callsubr
          endchar
        </CharString>
        <CharString name="quotesinglbase">
          -44 callsubr
        </CharString>
        <CharString name="quotesingle">
          -417 501 -21 235 -20 hstem
          72 480 rmoveto
          56 hlineto
          30 235 rlineto
          -116 hlineto
          endchar
        </CharString>
        <CharString name="r">
          -165 21 -21 407 108 hstem
          121 11 callsubr
          240 500 rmoveto
          -44 hlineto
          -73 callsubr
          -43 309 43 vlineto
          -105 20 rlineto
          321 vlineto
          17 12 20 12 21 10 127 -11 rcurveline
          5 16 4 27 23 vvcurveto
          14 -2 15 -4 13 vhcurveto
          -87 -62 -40 -37 -39 hvcurveto
          endchar
        </CharString>
        <CharString name="registered">
          214 -10 59 286 37 160 38 96 59 hstem
          48 59 176 73 132 76 159 60 -41 callsubr
          59 hmoveto
          171 137 138 172 170 137 -138 -171 -171 -137 -137 -170 -172 -137 137 171 vhcurveto
          506 -180 rmoveto
          -53 13 -93 152 rlineto
          59 12 38 38 62 vvcurveto
          79 -59 37 -108 vhcurveto
          -170 -28 hlineto
          56 -13 rlineto
          -338 vlineto
          -56 -13 rlineto
          -28 185 28 vlineto
          -56 13 rlineto
          144 40 vlineto
          104 -185 rlineto
          113 hlineto
          -125 304 rmoveto
          -54 -40 -28 -57 vhcurveto
          -35 160 35 hlineto
          57 40 -26 -52 hvcurveto
          endchar
        </CharString>
        <CharString name="ring">
          -359 562 17 callsubr
          hstem
          20 17 callsubr
          vstem
          20 671 -43 callsubr
        </CharString>
        <CharString name="ring.case">
          -365 752 17 callsubr
          hstem
          17 17 callsubr
          vstem
          17 861 -40 callsubr
          30 25 25 30 30 25 -25 -30 -29 -25 -26 -30 -30 -25 26 29 vhcurveto
          endchar
        </CharString>
        <CharString name="s">
          -138 -15 55 422 53 hstem
          58 107 163 109 vstem
          363 360 rmoveto
          42 136 hlineto
          11 -37 -55 8 -51 hhcurveto
          -116 -88 -45 -93 -85 62 -46 79 -33 hvcurveto
          85 -34 44 -22 -44 vvcurveto
          -54 -32 -19 -85 -38 -17 2 4 -23 vhcurveto
          -38 105 rlineto
          -46 -143 hlineto
          -12 42 66 -11 67 hhcurveto
          122 91 50 100 94 -70 37 -91 41 hvcurveto
          -69 31 -42 17 41 vvcurveto
          40 20 26 77 31 15 -2 -6 22 vhcurveto
          endchar
        </CharString>
        <CharString name="section">
          -83 -83 57 731 54 hstem
          62 85 218 110 vstem
          79 -43 rmoveto
          -22 44 61 -18 71 hhcurveto
          120 100 52 103 54 -26 39 -36 29 hvcurveto
          40 28 28 42 55 vvcurveto
          112 -105 45 -90 36 vhcurveto
          -67 26 -50 28 59 vvcurveto
          47 44 33 75 26 17 -3 -4 21 vhcurveto
          41 -122 rlineto
          41 157 hlineto
          15 -43 -57 11 -67 hhcurveto
          -110 -90 -53 -94 -64 33 -42 43 -29 hvcurveto
          -47 -25 -34 -40 -53 vvcurveto
          -95 83 -50 96 -38 vhcurveto
          81 -32 43 -29 -50 vvcurveto
          -65 -56 -26 -77 -29 -19 5 7 -22 vhcurveto
          -43 127 rlineto
          -40 hlineto
          172 310 rmoveto
          83 -33 54 -30 -62 vvcurveto
          -29 -9 -25 -16 -18 vhcurveto
          -28 15 -31 12 -29 11 rrcurveto
          -66 25 -62 24 59 vvcurveto
          32 18 27 27 17 vhcurveto
          20 -10 20 -7 19 -8 rrcurveto
          endchar
        </CharString>
        <CharString name="semicolon">
          -342 -152 19 callsubr
          220 135 hstemhm
          64 148 -144 135 hintmask 11110000
          77 -69 callsubr
          hintmask 11101000
          28 533 rmoveto
          -37 32 -31 36 37 30 31 37 23 callsubr
        </CharString>
        <CharString name="seven">
          -141 21 -21 603 97 hstem
          238 hmoveto
          22 219 83 235 132 202 rrcurveto
          44 -422 vlineto
          -28 -205 rlineto
          44 hlineto
          51 108 rlineto
          244 hlineto
          -88 -129 -132 -266 -26 -208 rrcurveto
          endchar
        </CharString>
        <CharString name="six">
          -48 -15 55 317 79 221 58 hstem
          52 113 246 124 vstem
          461 715 rmoveto
          -8 hlineto
          -248 -153 -186 -229 -183 85 -132 168 153 77 107 122 122 -71 100 -137 -78 -54 -40 -21 -23 hvcurveto
          25 156 97 125 166 1 rrcurveto
          -178 -300 rmoveto
          84 45 -70 -90 -78 -42 -79 -70 -88 -46 113 138 hvcurveto
          27 vlineto
          16 22 42 23 53 hhcurveto
          endchar
        </CharString>
        <CharString name="slash">
          -173 -30 callsubr
          416 700 rmoveto
          -76 hlineto
          -311 -700 rlineto
          77 hlineto
          endchar
        </CharString>
        <CharString name="space">
          -386 endchar
        </CharString>
        <CharString name="sterling">
          -58 0 97 236 62 271 49 hstemhm
          87 127 -21 103 hintmask 11101000
          468 205 rmoveto
          -53 -108 rlineto
          -225 hlineto
          59 49 47 58 70 vvcurveto
          20 -3 19 -6 20 vhcurveto
          115 hlineto
          11 72 -148 -10 rlineto
          hintmask 11110000
          -24 51 -27 49 50 vvcurveto
          67 34 54 81 vhcurveto
          116 -108 32 22 24 45 2 40 rlinecurve
          30 -57 -80 20 -75 hhcurveto
          -104 -100 -39 -112 -61 37 -58 31 -59 hvcurveto
          -98 -6 rlineto
          -47 122 vlineto
          hintmask 11101000
          8 -22 6 -22 -22 vvcurveto
          -93 -80 -72 -64 -47 vhcurveto
          -55 435 vlineto
          28 205 rlineto
          endchar
        </CharString>
        <CharString name="t">
          -242 -15 60 449 -20 117 -20 hstem
          88 11 callsubr
          35 440 rmoveto
          53 -301 hlineto
          -120 63 -34 88 51 46 16 16 31 vhcurveto
          -17 46 rlineto
          -12 -28 -22 -6 -22 hhcurveto
          -48 -23 29 60 hvcurveto
          306 144 60 vlineto
          -144 -6 rlineto
          97 -30 vlineto
          -142 -121 rlineto
          endchar
        </CharString>
        <CharString name="thorn">
          -30 -15 55 400 75 hstem
          78 117 223 49 callsubr
          -7 -275 rmoveto
          307 43 hlineto
          -105 20 rlineto
          205 vlineto
          -6 23 23 -2 24 hhcurveto
          149 130 93 190 172 -103 75 -114 -48 -46 -15 -26 -38 hvcurveto
          326 -42 -21 callsubr
          -931 -25 callsubr
          425 496 rmoveto
          -149 -65 -75 -97 -21 -20 2 6 -20 18 callsubr
          14 29 30 8 30 hhcurveto
          81 53 -62 -114 hvcurveto
          endchar
        </CharString>
        <CharString name="three">
          -78 -15 62 293 56 272 47 hstemhm
          328 126 -90 127 hintmask 11110000
          454 553 rmoveto
          89 -59 73 -156 -114 -77 -48 0 vhcurveto
          2 -36 27 -49 24 -16 112 102 rcurveline
          69 46 -51 -71 -84 -64 -65 -108 -1 hvcurveto
          -56 vlineto
          hintmask 11101000
          135 73 -58 -91 -84 -66 -60 -106 -45 -51 8 20 -55 hvcurveto
          -21 -49 rlineto
          -27 61 72 -14 70 hhcurveto
          142 126 69 139 90 -62 75 -129 20 hvcurveto
          hintmask 11110000
          100 32 54 69 74 vvcurveto
          endchar
        </CharString>
        <CharString name="threequarters">
          203 21 -21 85 47 0 292 291 -20 hstemhm
          442 285 -81 81 hintmask 11011000
          442 119 -1 callsubr
          vlineto
          hintmask 10110100
          292 -48 vlineto
          hintmask 10111000
          hintmask 10110100
          -14 callsubr
          -324 311 -28 callsubr
          -29 callsubr
          62 19 35 38 44 vvcurveto
          348 102 -42 callsubr
        </CharString>
        <CharString name="threesuperior">
          -233 276 43 167 37 hstemhm
          231 89 -67 90 hintmask 11100000
          320 613 -28 callsubr
          hintmask 11010000
          -29 callsubr
          hintmask 11100000
          62 19 35 38 44 vvcurveto
          endchar
        </CharString>
        <CharString name="tilde">
          -201 38 callsubr
          276 679 -46 callsubr
        </CharString>
        <CharString name="tilde.case">
          -234 777 48 callsubr
          hintmask 10000000
          268 857 rmoveto
          hintmask 01000000
          -53 callsubr
          hintmask 10000000
          -60 callsubr
        </CharString>
        <CharString name="two">
          -79 0 97 569 49 hstem
          328 127 vstem
          450 205 rmoveto
          -54 -108 rlineto
          -239 hlineto
          121 113 177 178 163 vvcurveto
          113 -92 51 -107 -74 -80 -20 -30 -58 vhcurveto
          2 -40 20 -41 35 -26 118 108 rcurveline
          66 43 -52 -80 -184 -281 -269 -18 -21 hvcurveto
          -60 437 vlineto
          28 205 rlineto
          endchar
        </CharString>
        <CharString name="twosuperior">
          -233 285 69 356 -20 hstem
          223 90 vstem
          307 415 -54 callsubr
          endchar
        </CharString>
        <CharString name="u">
          -83 callsubr
          endchar
        </CharString>
        <CharString name="uacute">
          -83 callsubr
          254 88 -72 callsubr
        </CharString>
        <CharString name="ucircumflex">
          30 -15 70 445 -20 98 -21 209 -93 callsubr
          346 266 -77 callsubr
        </CharString>
        <CharString name="udieresis">
          30 -15 70 445 -20 121 131 hstemhm
          98 119 -60 9 callsubr
          -57 119 hintmask 11110010
          -99 callsubr
          hintmask 11101100
          144 167 -95 callsubr
        </CharString>
        <CharString name="ugrave">
          -83 callsubr
          257 269 -66 callsubr
        </CharString>
        <CharString name="underscore">
          138 -142 64 hstem
          607 -78 rmoveto
          -459 -64 459 hlineto
          endchar
        </CharString>
        <CharString name="uni00AD">
          -215 317 80 hstem
          331 317 rmoveto
          80 -260 -80 vlineto
          endchar
        </CharString>
        <CharString name="v">
          -42 14 -21 507 -20 hstem
          367 457 rmoveto
          70 -19 -116 -290 -124 293 71 16 rlineto
          43 -266 -43 vlineto
          67 -19 190 -445 rlineto
          60 hlineto
          175 442 80 22 rlineto
          43 -207 vlineto
          endchar
        </CharString>
        <CharString name="w">
          204 14 -21 507 -20 hstem
          529 -7 rmoveto
          64 hlineto
          148 444 77 20 rlineto
          43 -217 -43 vlineto
          82 -20 -91 -265 -116 328 rlineto
          -71 hlineto
          -113 -333 -98 273 67 17 rlineto
          43 -258 -43 vlineto
          63 -18 164 -446 rlineto
          63 hlineto
          115 340 rlineto
          endchar
        </CharString>
        <CharString name="x">
          11 21 -21 500 -20 hstem
          404 53 rmoveto
          -64 -10 rlineto
          -43 280 43 vlineto
          -84 19 -164 212 136 163 82 20 rlineto
          43 -221 -43 vlineto
          69 -17 -99 -123 -98 128 62 12 rlineto
          43 -280 -43 vlineto
          82 -19 148 -191 -156 -186 -81 -18 rlineto
          -43 216 43 vlineto
          -65 16 120 144 rlineto
          endchar
        </CharString>
        <CharString name="y">
          -61 callsubr
          endchar
        </CharString>
        <CharString name="yacute">
          -61 callsubr
          258 88 -72 callsubr
        </CharString>
        <CharString name="ydieresis">
          -16 -278 -21 799 -20 121 131 hstem
          154 9 callsubr
          vstem
          -79 callsubr
          153 167 -95 callsubr
        </CharString>
        <CharString name="yen">
          153 193 73 44 71 hstem
          329 37 callsubr
          493 -45 callsubr
          187 -270 -140 -8 rlineto
          -46 170 -60 vlineto
          -170 -10 rlineto
          -47 170 -125 16 callsubr
          -19 callsubr
          125 163 vlineto
          10 73 -173 -10 rlineto
          54 163 vlineto
          10 71 -142 -7 163 258 31 callsubr
          -245 vlineto
          endchar
        </CharString>
        <CharString name="z">
          -107 0 50 401 49 hstem
          89 345 rmoveto
          48 101 rlineto
          181 hlineto
          -279 -396 rlineto
          -50 413 vlineto
          10 166 rlineto
          -39 hlineto
          -52 -111 rlineto
          -187 hlineto
          279 396 rlineto
          49 -399 vlineto
          -11 -155 rlineto
          endchar
        </CharString>
        <CharString name="zero">
          15 -26 callsubr
          274 128 vstem
          316 -15 rmoveto
          180 85 175 190 190 -85 175 -180 -180 -85 -175 -190 -190 85 -175 180 hvcurveto
          59 vmoveto
          -92 -45 147 159 159 45 147 92 92 45 -147 -159 -159 -45 -147 -92 hvcurveto
          endchar
        </CharString>
</ttFont>
